<svg xmlns="http://www.w3.org/2000/svg" viewBox="0 0 319 31.79"><title>black_logo</title><g id="Layer_2" data-name="Layer 2"><g id="Layer_1-2" data-name="Layer 1"><path d="M0,.48c2,0,4,.06,6.45.06C8.14.54,10,.48,14,.48c3.69,0,5.66,1.08,6.86,2.83L22.79,6a4.39,4.39,0,0,1,.83,2.61,5,5,0,0,1-1.88,4.19L23.4,15a6.64,6.64,0,0,1,1.23,4.26c0,3.75-3,6-8.16,6-2.48,0-5-.06-7.6-.06-1.78,0-3.72.06-6.55.06L0,22.22V19.55l1.91-.06V5.66L0,3.15ZM.79,2.35l1.91.07V20.28l-1.91.06v1.08c1.37,0,4.45-.06,5.69-.06s4.42.06,7.6.06c4.74,0,7.47-2,7.47-5.34S20,10.93,16.47,10.46v-.13c2.89-.92,4.06-2.51,4.06-4.86,0-2.58-2.22-4.2-6.51-4.2-4,0-6.33.07-7.54.07S2.16,1.27.79,1.27ZM3.37,2H9.44v.42H3.37Zm0,1H9.44V3.4H3.37Zm0,.95H9.44v.41H3.37Zm0,1H9.44v.41H3.37Zm0,.95H9.44v.41H3.37Zm0,1H9.44v.42H3.37Zm0,1H9.44v.41H3.37Zm0,1H9.44v.41H3.37Zm0,.95H9.44v.42H3.37Zm0,1H9.44V11H3.37Zm0,1H9.44V12H3.37Zm0,.95H9.44v.42H3.37Zm0,1H9.44v.41H3.37Zm0,.95H9.44v.41H3.37Zm0,1H9.44v.42H3.37Zm0,1H9.44v.41H3.37Zm0,.95H9.44v.42H3.37Zm0,1H9.44v.41H3.37Zm0,.95H9.44v.41H3.37Zm0,.95H9.44v.42H3.37ZM11,2.35c1.81,0,2.6,1.18,2.6,3.47S13.06,10,11.25,10H10.08V2.35Zm.28,8.74c1.94,0,2.67,1.21,2.67,4.64,0,2.29-.22,4.61-2.16,4.61H10.08V11.09ZM12.46,2h3.15a9.62,9.62,0,0,1,1.84.42H13.1A4.71,4.71,0,0,0,12.46,2Zm.16,8.59h2a10.23,10.23,0,0,1,1.84.38v0H13.32A2.92,2.92,0,0,0,12.62,10.62Zm.67-1h3a8.56,8.56,0,0,1-.79.42H12.87A2.78,2.78,0,0,0,13.29,9.66Zm.31,10.49h4.23a7,7,0,0,1-1.49.42H13.16A1.75,1.75,0,0,0,13.6,20.15ZM13.57,3h5A3.41,3.41,0,0,1,19,3.4H13.76Zm.23,5.72h4.38a2.92,2.92,0,0,1-.67.41H13.6Zm0,2.86H18a5.29,5.29,0,0,1,.86.41H14Zm5-3.4H14l.1-.41h5.12A2.8,2.8,0,0,1,18.82,8.17Zm-4.71,11h5.38l-.55.41H14ZM14,3.94h5.46l.19.41H14.08Zm5.5,3.28H14.11l.07-.42h5.46A1.73,1.73,0,0,1,19.49,7.22ZM14.15,4.9H19.8a1.41,1.41,0,0,1,.07.41H14.18A1.84,1.84,0,0,0,14.15,4.9Zm.06.95h5.63c0,.16,0,.28,0,.41H14.21Zm0,6.67h5.34a2.06,2.06,0,0,1,.38.42H14.3Zm.16,5.73h5.94l-.28.41H14.27Zm.06-4.77h5.88l.19.41h-6C14.46,13.76,14.43,13.6,14.43,13.48Zm6.14,4.23H14.46a2.13,2.13,0,0,1,0-.42h6.2A1.72,1.72,0,0,1,20.57,17.71Zm-6-3.28h6.16l.07.41H14.53Zm0,1.91h6.32a1.68,1.68,0,0,1-.06.41H14.53C14.53,16.62,14.56,16.5,14.56,16.34Zm0-1h6.29c0,.13,0,.29,0,.42H14.56Z"/><path d="M31.76.54C34.27.54,36,.48,39.42.48s5.85.73,7.28,2.79L48.54,6a5.12,5.12,0,0,1,.86,3,5,5,0,0,1-2.8,4.67l1.5,2A7.32,7.32,0,0,1,49.75,20l2.1,2.77v2.48a29.2,29.2,0,0,1-4.42.38c-3.53,0-5.5-.73-6.52-2.1V25.3c-2,0-4.1-.12-6.55-.12-2.06,0-4.13.09-6.51.12l-2.32-3.08V19.61l1.9-.16V5.66l-1.9-2.51V.48C27.24.48,29,.51,31.76.54Zm-5.44.73V2.35l1.91.07v17.8l-1.91.12v1.08c1.34,0,4.32-.12,5.66-.12,2,0,4.58.12,5.85.12V20.34l-2.23-.12V11.67h.1c2.67,0,2.76,2,2.76,5.08,0,3.37,1.08,5,6.58,5a24.26,24.26,0,0,0,3.72-.28V20.38s-.28,0-.47,0c-1.12,0-1.59-.42-1.59-2.83,0-5.31-3.6-5.88-7-6.33v-.16c4-.6,6.58-2,6.58-5.27,0-3.5-2.93-4.55-6.9-4.55-2.9,0-6.33.07-7.57.07S27.72,1.27,26.32,1.27ZM28.9,2h6v.42h-6Zm0,1h6V3.4h-6Zm0,.95h6v.41h-6Zm0,1h6v.41h-6Zm0,.95h6v.41h-6Zm0,1h6v.42h-6Zm0,1h6v.41h-6Zm0,1h6v.41h-6Zm0,.95h6v.42h-6Zm0,1h6V11h-6Zm0,1h6V12h-6Zm0,.95h6v.42h-6Zm0,1h6v.41h-6Zm0,.95h6v.41h-6Zm0,1h6v.42h-6Zm0,1h6v.41h-6Zm0,.95h6v.42h-6Zm0,1h6v.41h-6Zm0,.95h6v.41h-6Zm0,.95h6v.42h-6Zm6.7-17.8h.48c2.48,0,2.64,1.53,2.64,4,0,2.76-.51,4.26-3,4.26H35.6Zm2.16,8.27h2a12.36,12.36,0,0,1-1.37.41H36.68A3.34,3.34,0,0,0,37.76,10.62Zm-.15,1h1.14c1,.13,2.1.41,2.1.41H38.11A4.24,4.24,0,0,0,37.61,11.57Zm5.72-9.12h-4.8A2.59,2.59,0,0,0,38,2h3.78A7.9,7.9,0,0,1,43.33,2.45ZM38.75,9.66h3.88c-.42.16-.83.29-1.27.42H38.43A5.11,5.11,0,0,0,38.75,9.66Zm-.25,2.86h4.19a5.81,5.81,0,0,1,.92.42H38.69Zm.35,1h5.59l.41.41H38.94Zm6-10.08H39.1L38.91,3h5.43A2.73,2.73,0,0,1,44.82,3.4ZM39.13,8.71h5.18a3.53,3.53,0,0,1-.6.41H39A2.85,2.85,0,0,0,39.13,8.71Zm6.36,6.13H39c0-.12,0-.41,0-.41h6.27Zm.35,1H39.1a4.06,4.06,0,0,0,0-.42h6.64A3.22,3.22,0,0,1,45.84,15.8Zm.16.95H39.1v-.41H46S46,16.62,46,16.75Zm-6.9.54h7v.42H39.13S39.1,17.45,39.1,17.29ZM45.43,4.35H39.29a2,2,0,0,0-.06-.41h6Zm-6.2,13.9h6.83c0,.15,0,.41,0,.41H39.32Zm.06-10.49h5.85a1.14,1.14,0,0,1-.29.41H39.26C39.26,8,39.29,7.92,39.29,7.76Zm6.36-2.45h-6.3V4.9h6.23ZM39.39,6.8h6.16a1.72,1.72,0,0,1-.12.42H39.35C39.35,7.09,39.39,7,39.39,6.8Zm6.26-.54H39.39V5.85h6.29A1.76,1.76,0,0,1,45.65,6.26ZM39.54,19.2h6.62s0,.29.06.41H39.8A3.67,3.67,0,0,1,39.54,19.2Zm.83.95h6.07a1.06,1.06,0,0,0,.29.42h-5.6A4.55,4.55,0,0,1,40.37,20.15Z"/><path d="M72,12.87l-2.86-3.3v3.11h2.35l2.64,3.56L74,25.3c-3.4,0-6.83-.12-10.87-.12-2.89,0-5.91.12-9.66.12l-2.32-3.08V19.61l1.91-.16V5.63L51.15,3.12V.48c2.7,0,5.43.12,8.61.12,3.6,0,7.16-.09,11.13-.12l2.29,3,.41,9.37ZM51.94,21.42c1.47,0,4.77-.12,8.81-.12,3.3,0,7.5.12,10.17.12l.19-8.16H70l-.1.47c-.16.86-2.45,6.49-7.91,6.49h-.73V11.51l.22,0c1.87.25,3.49,2.76,3.49,4h1.15V7.18H64.94c0,1.28-1.84,3-3.49,3.21l-.22,0V2.48h1.3c4.32,0,6.48,5.05,6.64,5.69l.13.57h1.14l-.31-7.47c-2.17,0-7.41.13-10.37.13-3.3,0-6.42-.13-7.82-.13V2.35l1.91.13V20.22l-1.91.12ZM54.52,2h6v.42h-6Zm0,1h6V3.4h-6Zm0,.95h6v.41h-6Zm0,1h6v.41h-6Zm0,.95h6v.41h-6Zm0,1h6v.42h-6Zm0,1h6v.41h-6Zm0,1h6v.41h-6Zm0,.95h6v.42h-6Zm0,1h6V11h-6Zm0,1h6V12h-6Zm0,.95h6v.42h-6Zm0,1h6v.41h-6Zm0,.95h6v.41h-6Zm0,1h6v.42h-6Zm0,1h6v.41h-6Zm0,.95h6v.42h-6Zm0,1h6v.41h-6Zm0,.95h6v.41h-6Zm0,.95h6v.42h-6Zm8.36-9.53h2.54V11l-3.53.06V11A5.05,5.05,0,0,0,62.88,10.62Zm.28,1h2.26V12H63.64Zm.93-1.91h1.33v.42H63.58A3.45,3.45,0,0,0,64.09,9.66Zm1,10.49h5.25v.42H63.9A5.45,5.45,0,0,0,65.07,20.15Zm-.92-7.63h1.27v.42h-1A3.9,3.9,0,0,0,64.15,12.52ZM64.34,2h5.15v.42h-4.2C65,2.29,64.66,2.16,64.34,2Zm.6,6.68h.48v.41h-.79A1.84,1.84,0,0,0,64.94,8.71Zm-.09,4.77h.57v.41h-.35C65,13.76,64.91,13.64,64.85,13.48Zm.57-5.31h-.13l.1-.29h0Zm-.06,6.26h.12v.32h0Zm1.33,4.77h3.63v.41H66.09A3.53,3.53,0,0,0,66.69,19.2ZM66.15,3h3.37V3.4H66.66Zm1.08.95h2.32l0,.41h-2Zm.54,14.31h2.58v.41h-3A5.29,5.29,0,0,0,67.77,18.25ZM68.06,4.9h1.56l0,.41h-1.3Zm.57,12.39h1.72v.42H68.28Zm.1-11.44h1l0,.41H69Zm.57,10.49h1v.41H69Zm0-9.54h.47l0,.42h-.32Zm.57,8.58h.51v.42h-.73C69.68,15.67,69.78,15.54,69.84,15.38Zm-.16-7.62h.13V8l0,0Zm.6,6.67h.1v.41h-.29Z"/><path d="M80.71,25.18c-1,0-2,.12-3.21.12H76l-2.32-3.08V19.58c.85,0,2.73,0,4.45-4.58L83.57.6h5.6L91,3l5.91,16.5,1.33.09,2.29,3.05V25.3H98.61c-1.21,0-2.58-.12-4.55-.12-2.38,0-4.86.12-7.69.12C84.4,25.3,82.78,25.18,80.71,25.18ZM97.4,21.42V20.34l-2.29-.15L88.34,1.34h-4.2l-5.27,14c-1.91,5.05-3.63,5-4.42,5.05v1.08h.67c1.17,0,2-.12,3.21-.12,1.46,0,3.11.12,4.32.12h.64V20.34c-2.07,0-3.56-1-3.56-2.83a4.84,4.84,0,0,1,.35-1.65l.25-.67h5.34l1.75,5-2.64.15v1.08c2.13,0,5.18-.12,6.9-.12ZM76.64,20.15H80.3a2.73,2.73,0,0,0,.73.42H76A4.6,4.6,0,0,0,76.64,20.15Zm.93-.95h1.9a1.69,1.69,0,0,0,.26.41H77.22Zm.63-.95h.92l.1.41H78Zm.51-1h.35v.42h-.57C78.55,17.58,78.65,17.45,78.71,17.29Zm.41-.95h.1l-.1.41h-.19Zm3.94-8.49h.07L85.26,14H80.78Zm.07-2h6.1l.16.41h-6.1Zm.32-.95h5.43l.16.41H83.29Zm0,1.9h6.1l.16.42H83.6Zm.35-2.86h4.73l.13.41h-5Zm0,3.82h6.13l.16.41H84ZM84.18,3h4l.16.41H84Zm2.13,16.53-1.12-3.05L84,19.64ZM84.14,8.71h6.14l.16.41H84.27ZM84.56,2H87.9l.12.42H84.4Zm-.1,7.63h6.17l.16.42H84.62Zm.35,1H91l.16.41h-6.2Zm.32,1h6.2l.16.41h-6.2Zm.35.95h6.2l.16.42H85.61Zm.32,1H92l.16.41H86Zm.32.95h6.26l.16.41H86.27Zm.35,1h6.26l.12.42H86.59Zm.31,1h6.27l.15.41H86.91Zm.32.95h6.29l.16.42H87.23Zm.32,1h6.32l.16.41H87.58Zm.32.95h6.35l.16.41H87.9Zm.31.95h6.39l.16.42H88.21Z"/><path d="M99.63,22.22V19.61l1.9-.12V5.63l-1.9-2.51V.48c2.09,0,4.19.06,7.09.06,2.35,0,3,0,5,0,5,0,8,1.37,10.07,4.32l1.88,2.74a10.84,10.84,0,0,1,1.68,6.48c0,6.58-2.73,11.25-10.33,11.25-2.22,0-4.42-.06-6.8-.06-1.69,0-3.53.06-6.26.06Zm13-.8c7.09,0,9.63-4.38,9.63-10.55,0-6.67-3.69-9.57-10.55-9.57-1.53,0-4.71,0-5.88,0s-4-.07-5.41-.07V2.35l1.91.1v17.8l-1.91.09v1.08c1.4,0,3.66-.06,5.41-.06S110.34,21.42,112.63,21.42ZM103,2h6.11v.42H103Zm0,1h6.11V3.4H103Zm0,.95h6.11v.41H103Zm0,1h6.11v.41H103Zm0,.95h6.11v.41H103Zm0,1h6.11v.42H103Zm0,1h6.11v.41H103Zm0,1h6.11v.41H103Zm0,.95h6.11v.42H103Zm0,1h6.11V11H103Zm0,1h6.11V12H103Zm0,.95h6.11v.42H103Zm0,1h6.11v.41H103Zm0,.95h6.11v.41H103Zm0,1h6.11v.42H103Zm0,1h6.11v.41H103Zm0,.95h6.11v.42H103Zm0,1h6.11v.41H103Zm0,.95h6.11v.41H103Zm0,.95h6.11v.42H103Zm8,.19H109.7v-18h.92c3.31,0,4,3.09,4,8.39C114.63,15.77,114.34,20.34,111,20.34Zm5-17.89h-2.79a6.58,6.58,0,0,0-.73-.42h1.33A14.69,14.69,0,0,1,115.93,2.45Zm-2.7,17.7h3.24a7.62,7.62,0,0,1-1.55.42h-2.29A2.71,2.71,0,0,0,113.23,20.15Zm5-16.75H114L113.71,3h3.69A6.54,6.54,0,0,1,118.19,3.4ZM114,19.2h4.29a7.12,7.12,0,0,1-.67.41h-3.91ZM119.4,4.35h-4.93a3,3,0,0,0-.19-.41H119Zm-5,13.9h4.93a3.26,3.26,0,0,1-.42.41h-4.67A1.84,1.84,0,0,0,114.44,18.25Zm.29-1h5.34l-.26.42h-5.18Zm5.46-12h-5.43l-.1-.41h5.22A2.94,2.94,0,0,1,120.19,5.31Zm.19,11.44h-5.53a1.67,1.67,0,0,0,.07-.41h5.69C120.54,16.5,120.45,16.62,120.38,16.75Zm.35-10.49H115l-.06-.41h5.59A2.05,2.05,0,0,1,120.73,6.26ZM115,15.38H121l-.16.42H115A1.84,1.84,0,0,0,115,15.38Zm6.07-8.16h-6c0-.13,0-.29,0-.42H121Zm-6,7.21h6.1l-.09.41h-6A1.84,1.84,0,0,0,115.14,14.43Zm6.23-6.26h-6.2V7.76h6.07C121.27,7.92,121.34,8,121.37,8.17Zm.16.95h-6.3c0-.12,0-.25,0-.41h6.26A1.59,1.59,0,0,0,121.53,9.12Zm-6.33,4.36h6.23l-.06.41H115.2Zm0-3.82h6.33a2,2,0,0,1,0,.42h-6.32C115.27,10,115.23,9.82,115.23,9.66Zm6.27,3.28h-6.27v-.42h6.3A1.84,1.84,0,0,1,121.5,12.94Zm.12-2.32V11h-6.35v-.41Zm-6.35,1h6.32V12h-6.32Z"/><path d="M133.42.48c2,0,4,.06,6.45.06,1.69,0,3.5-.06,7.57-.06,3.68,0,5.65,1.08,6.86,2.83L156.21,6A4.39,4.39,0,0,1,157,8.65a5,5,0,0,1-1.88,4.19L156.81,15a6.65,6.65,0,0,1,1.24,4.26c0,3.75-3,6-8.17,6-2.48,0-4.95-.06-7.59-.06-1.78,0-3.72.06-6.55.06l-2.32-3.08V19.55l1.91-.06V5.66l-1.91-2.51Zm.79,1.87,1.91.07V20.28l-1.91.06v1.08c1.37,0,4.45-.06,5.69-.06s4.42.06,7.6.06c4.74,0,7.47-2,7.47-5.34s-1.59-5.15-5.09-5.62v-.13c2.9-.92,4.07-2.51,4.07-4.86,0-2.58-2.22-4.2-6.51-4.2-4,0-6.33.07-7.54.07s-4.32-.07-5.69-.07ZM136.79,2h6.07v.42h-6.07Zm0,1h6.07V3.4h-6.07Zm0,.95h6.07v.41h-6.07Zm0,1h6.07v.41h-6.07Zm0,.95h6.07v.41h-6.07Zm0,1h6.07v.42h-6.07Zm0,1h6.07v.41h-6.07Zm0,1h6.07v.41h-6.07Zm0,.95h6.07v.42h-6.07Zm0,1h6.07V11h-6.07Zm0,1h6.07V12h-6.07Zm0,.95h6.07v.42h-6.07Zm0,1h6.07v.41h-6.07Zm0,.95h6.07v.41h-6.07Zm0,1h6.07v.42h-6.07Zm0,1h6.07v.41h-6.07Zm0,.95h6.07v.42h-6.07Zm0,1h6.07v.41h-6.07Zm0,.95h6.07v.41h-6.07Zm0,.95h6.07v.42h-6.07Zm7.59-17.8c1.82,0,2.61,1.18,2.61,3.47S146.48,10,144.67,10h-1.18V2.35Zm.29,8.74c1.94,0,2.67,1.21,2.67,4.64,0,2.29-.22,4.61-2.16,4.61h-1.69V11.09ZM145.88,2H149a9.62,9.62,0,0,1,1.84.42h-4.36A4.6,4.6,0,0,0,145.88,2Zm.16,8.59h2a10.23,10.23,0,0,1,1.84.38v0h-3.11A3.12,3.12,0,0,0,146,10.62Zm.67-1h3c-.16.1-.63.35-.79.42h-2.61A2.78,2.78,0,0,0,146.71,9.66ZM147,20.15h4.23a7,7,0,0,1-1.49.42h-3.18A1.75,1.75,0,0,0,147,20.15ZM147,3h5a3.41,3.41,0,0,1,.48.41h-5.25Zm.22,5.72h4.39a2.92,2.92,0,0,1-.67.41H147Zm0,2.86h4.2a5.72,5.72,0,0,1,.86.41h-4.83Zm5-3.4h-4.87l.1-.41h5.12A2.8,2.8,0,0,1,152.24,8.17Zm-4.71,11h5.37l-.54.41h-5ZM147.4,3.94h5.47l.19.41H147.5Zm5.5,3.28h-5.37l.07-.42h5.46A1.41,1.41,0,0,1,152.9,7.22ZM147.56,4.9h5.66a1.85,1.85,0,0,1,.07.41H147.6A1.39,1.39,0,0,0,147.56,4.9Zm.07.95h5.62c0,.16,0,.28,0,.41h-5.59Zm0,6.67H153a2.4,2.4,0,0,1,.38.42h-5.63Zm.16,5.73h5.94l-.29.41h-5.75Zm.06-4.77h5.88l.19.41h-6C147.88,13.76,147.85,13.6,147.85,13.48ZM154,17.71h-6.1a2.13,2.13,0,0,1,0-.42h6.2A1.38,1.38,0,0,1,154,17.71Zm-6-3.28h6.17l.07.41h-6.24Zm0,1.91h6.32a1.68,1.68,0,0,1-.06.41h-6.3C147.94,16.62,148,16.5,148,16.34Zm0-1h6.29c0,.13,0,.29,0,.42H148Z"/><path d="M160.76,19.9A12.17,12.17,0,0,1,158,11.54C158,3.12,163.75,0,169.69,0c4.23,0,8,1.34,10.33,4.86l1.59,2.39a12.44,12.44,0,0,1,2.07,7.15c0,8.39-5.6,11.51-11.61,11.51A12.18,12.18,0,0,1,162.54,22Zm19.83-8.68c0-7.85-5.31-10.43-10.9-10.43s-10.9,2.9-10.9,10.75S164.09,22,169.69,22,180.59,19.1,180.59,11.22Zm-21.1-.6h6.83V11h-6.87A1.53,1.53,0,0,1,159.49,10.62Zm0,1h6.87V12h-6.87Zm0,.95h6.83v.42h-6.8S159.49,12.68,159.49,12.52Zm6.83-2.44h-6.8l.06-.42h6.74Zm-6.74,3.4h6.74v.41h-6.68S159.58,13.57,159.58,13.48Zm6.74-4.36h-6.68l.1-.41h6.58Zm0,5.72h-6.52l-.09-.41h6.61Zm0-6.67h-6.48c0-.13.12-.41.12-.41h6.36ZM160,15.38h6.39v.42h-6.26Zm6.39-8.16h-6.2a3.61,3.61,0,0,1,.16-.42h6.07S166.38,7.09,166.38,7.22Zm-6,9.12h6.07a1.53,1.53,0,0,1,0,.41h-5.88A4,4,0,0,1,160.34,16.34Zm6.11-10.08H160.6a3.79,3.79,0,0,1,.22-.41h5.66S166.45,6.13,166.45,6.26Zm-5.6,11h5.66c0,.16,0,.29,0,.42h-5.4Zm5.69-12h-5.37a3,3,0,0,1,.32-.41h5.12Zm.19,13.35h-4.8l-.38-.41h5.09Zm0-14.31h-4.77l.45-.41h4.42ZM162.51,19.2h4.35a3.05,3.05,0,0,0,.13.41h-3.94A3.94,3.94,0,0,1,162.51,19.2ZM167,3.4h-4l.64-.41h3.46A2.26,2.26,0,0,0,167,3.4Zm-3,16.75h3.3a1.85,1.85,0,0,0,.26.42h-2.67A6.26,6.26,0,0,1,163.94,20.15ZM167.4,2.48h-2.76a6.63,6.63,0,0,1,1-.41h2A1.88,1.88,0,0,0,167.4,2.48Zm-.89,18.63h1.78a2.85,2.85,0,0,0,.76.28A14.83,14.83,0,0,1,166.51,21.11Zm1.78-19.46h-1.65A13.28,13.28,0,0,1,169,1.37,2.64,2.64,0,0,0,168.29,1.65ZM167,11.38c0-6.39.22-9.44,2.73-9.44s2.73,3.05,2.73,9.44-.19,9.5-2.73,9.5S167,18.09,167,11.38ZM170.17,20c1.33-.51,1.46-3.37,1.46-8.65,0-2.26,0-4.07-.16-5.44-1.3.58-1.43,3.37-1.43,8.62C170,16.85,170,18.66,170.17,20Zm.89,1.08h1.68a13,13,0,0,1-2.38.28A2.44,2.44,0,0,0,171.06,21.11Zm1.59-19.46h-1.53a2,2,0,0,0-.64-.28A11.38,11.38,0,0,1,172.65,1.65Zm2.28.83h-3a1.88,1.88,0,0,0-.32-.41h2.19A8.12,8.12,0,0,1,174.93,2.48ZM172.1,20.15h3.22a8.83,8.83,0,0,1-.89.42h-2.58A1.61,1.61,0,0,0,172.1,20.15ZM176.59,3.4h-4.17a1.74,1.74,0,0,0-.16-.41H176Zm-4.1,15.8h4.22a3.94,3.94,0,0,1-.54.41h-3.81A2,2,0,0,0,172.49,19.2Zm5.15-14.85h-5l-.1-.41h4.64A5.71,5.71,0,0,1,177.64,4.35Zm-4.93,13.9h5l-.38.41h-4.67Zm5.66-12.94h-5.53l-.07-.41h5.31Zm-.26,12.4H172.8l.07-.42h5.53ZM172.9,5.85h5.78a2.92,2.92,0,0,1,.23.41h-6ZM173,16.34h5.95a4,4,0,0,1-.23.41h-5.75Zm6.36-9.12H173V6.8h6.17A3.92,3.92,0,0,1,179.32,7.22ZM173,15.38h6.26a2.17,2.17,0,0,1-.16.42H173Zm6.54-7.21h-6.51l0-.41h6.45Zm-.12,6.67H173l0-.41h6.51A3.63,3.63,0,0,1,179.45,14.84Zm.32-5.72h-6.71V8.71h6.64A2.93,2.93,0,0,1,179.77,9.12Zm-.1,4.77h-6.61v-.41h6.67S179.7,13.76,179.67,13.89Zm.19-3.81h-6.77V9.66h6.74S179.86,10,179.86,10.08Zm.06.95h-6.83v-.41h6.8S179.92,10.9,179.92,11Zm0,1h-6.8v-.41h6.83Zm-6.8.54h6.77c0,.16,0,.42,0,.42h-6.74Z"/><path d="M187.11,20.79a9.92,9.92,0,0,1-2.29-6.74V5.56L183,3.15V.51c2.13,0,4.26.13,6.55.13,2.06,0,4.13-.13,6.67-.13,1.78,0,3.28.13,5,.13,1.5,0,3-.13,4.58-.13l2.29,3.08V6.26c-.29,0-2.83.92-2.83,4.55v5.34c0,7-3.31,9.5-8.84,9.5-3.21,0-5.82-.82-7.6-2.86Zm6.26-18.28,1.88-.13V1.3c-1.34,0-4.74.13-5.72.13s-4.42-.13-5.76-.13V2.38l1.85.13V14.05c0,6.07,3.65,7.72,8.39,7.72,5.08,0,8.14-2.32,8.14-8.8V7.63c0-4.17,2.54-5.25,2.82-5.25V1.3c-1.59,0-2.51.13-3.78.13s-2.35-.13-3.94-.13V2.38c1.18,0,3.62,1.08,3.62,5.25v5.28c0,5.24-2.09,6.1-3.94,6.1-2.29,0-3.56-1.65-3.56-6.33ZM192,2h.7v.42h-6.49V2H187c1.05,0,2.1,0,2.52,0S191.15,2.07,192,2Zm-5.79,1h6.49V3.4h-6.49Zm0,.95h6.49v.41h-6.49Zm0,1h6.49v.41h-6.49Zm0,.95h6.49v.41h-6.49Zm0,1h6.49v.42h-6.49Zm0,1h6.49v.41h-6.49Zm0,1h6.49v.41h-6.49Zm0,.95h6.49v.42h-6.49Zm0,1h6.49V11h-6.49Zm0,1h6.49V12h-6.49Zm6.49,1.37h-6.49v-.42h6.49Zm0,1h-6.52v-.41h6.49Zm.06.95h-6.55s0-.25,0-.41h6.55C192.8,14.59,192.83,14.84,192.83,14.84Zm-6.51.54h6.58l.06.42h-6.58Zm6.89,1.37h-6.64l-.1-.41h6.62A3.47,3.47,0,0,0,193.21,16.75Zm-6.45.54h6.64l.19.42h-6.67A1.75,1.75,0,0,1,186.76,17.29Zm.45,1h6.7l.35.41h-6.77A2.22,2.22,0,0,1,187.21,18.25Zm.73.95H195a3.31,3.31,0,0,0,1.31.41h-7.89A3,3,0,0,1,187.94,19.2Zm1.27.95h9.18a4.54,4.54,0,0,1-.89.42h-7.37A4.8,4.8,0,0,1,189.21,20.15Zm2.83.92v0h3.72v0a8,8,0,0,1-1.75.16A9.83,9.83,0,0,1,192,21.07Zm4.51-3c0,.06.25.12.38.12,1.5,0,3.15-.76,3.15-5.3V7.63a5.93,5.93,0,0,0-.1-1.15,6.21,6.21,0,0,0-1.65-.28c-.38,0-1.78.16-1.78.16Zm2.61,1.52h-1.5A3.4,3.4,0,0,0,199,19.2h.57ZM198.33,2h1.08c.61,0,1.18,0,1.81,0s1.18,0,1.69,0h1.4l-.64.42h-4.48A5.67,5.67,0,0,0,198.33,2Zm2.07,16.22s-.16.22-.32.41h-.38a4.75,4.75,0,0,0,.41-.41ZM199.86,3h3.24c-.13.13-.35.41-.35.41h-2.51Zm.76.95h1.78l-.22.41h-1.34Zm.44,1H202l-.12.41h-.64Zm.29.95h.32c0,.13-.07.41-.07.41h-.19Zm.1,1h.12l0,.42h-.06Z"/><path d="M228.21.48l2.29,3.08.41,10.17h-2.44l-2.32-3.08-.45-1.3c-.13-.39-.41-1.12-.76-1.94V19.33l2.51,3.3V25.3c-2.19,0-4.39-.12-6.9-.12-2.26,0-4.51.09-7.12.12l-2.32-3.08V19.58l2.51-.13v-8.9c-.38.89-.67,1.66-.76,2s-.35,1-.41,1.21H210l-2.32-3.08L208.06.48c3.18,0,6.36.12,10.11.12C221.44.6,224.72.48,228.21.48Zm-19.39.79-.35,8.58h1.08l.26-.73c.16-.44,2.29-6.64,4.45-6.64h.16V20.22l-2.51.12v1.08c1.65,0,4.57-.12,6.26-.12s4.54.12,6.2.12V20.34l-2.52-.12V2.48H222c2.17,0,4.3,6.17,4.45,6.64l.26.73h1.08l-.35-8.58c-3,0-6.07.13-9.28.13S211.81,1.27,208.82,1.27Zm.29,7.85V8.71h.16l-.13.41Zm.35-.95h-.32V7.76h.48Zm.38-1h-.67l0-.42H210Zm.41-1h-1l0-.41h1.2Zm.48-1H209.3V4.9H211Zm.54-1h-1.94l0-.41h2.2Zm.67-.95h-2.55l0-.41h2.86Zm.92-.95h-3.43l0-.42h4.07A3.72,3.72,0,0,0,212.86,2.45ZM221.25,2v.42h-6.2V2Zm-6.2,1h6.2V3.4h-6.2Zm0,.95h6.2v.41h-6.2Zm0,1h6.2v.41h-6.2Zm0,.95h6.2v.41h-6.2Zm0,1h6.2v.42h-6.2Zm0,1h6.2v.41h-6.2Zm0,1h6.2v.41h-6.2Zm0,.95h6.2v.42h-6.2Zm0,1h6.2V11h-6.2Zm0,1h6.2V12h-6.2Zm0,.95h6.2v.42h-6.2Zm0,1h6.2v.41h-6.2Zm0,.95h6.2v.41h-6.2Zm0,1h6.2v.42h-6.2Zm0,1h6.2v.41h-6.2Zm0,.95h6.2v.42h-6.2Zm0,1h6.2v.41h-6.2Zm0,.95h6.2v.41h-6.2Zm0,.95h6.2v.42h-6.2ZM226.78,2l0,.42h-3.43a3.72,3.72,0,0,0-.67-.42ZM224,3h2.86l0,.41H224.3Zm.73.95h2.2l0,.41H225Zm.61,1h1.65v.41h-1.43Zm.47.95H227l0,.41h-1Zm.45,1H227l0,.42h-.67Zm.41,1h.48v.41h-.32Zm.48,1.36L227,8.71h.16v.41Z"/><path d="M231,22.22V19.61l1.84-.16V5.56L231,3.12V.48c2.07,0,4.1.12,6.32.12,2,0,4-.09,6.33-.12l2.29,3.05V6.2l-1.84.13V20.41l1.84,2.44V25.3c-2,0-4-.12-6.23-.12-2,0-4,.09-6.39.12Zm11.86-1.88L241,20.22V2.48l1.85-.13V1.27c-1.34,0-4.55.13-5.54.13s-4.19-.13-5.53-.13V2.35l1.85.13V20.22l-1.85.12v1.08c1.34,0,4.55-.12,5.53-.12s4.2.12,5.54.12ZM234.28,2h6v.42h-6Zm0,1h6V3.4h-6Zm0,.95h6v.41h-6Zm0,1h6v.41h-6Zm0,.95h6v.41h-6Zm0,1h6v.42h-6Zm0,1h6v.41h-6Zm0,1h6v.41h-6Zm0,.95h6v.42h-6Zm0,1h6V11h-6Zm0,1h6V12h-6Zm0,.95h6v.42h-6Zm0,1h6v.41h-6Zm0,.95h6v.41h-6Zm0,1h6v.42h-6Zm0,1h6v.41h-6Zm0,.95h6v.42h-6Zm0,1h6v.41h-6Zm0,.95h6v.41h-6Zm0,.95h6v.42h-6Z"/><path d="M269.92,21.68a10,10,0,0,0,1.4-.73l1.81,1.14,2.26,3.24c-.73,1.91-2.67,6.46-7.47,6.46-2.9,0-4.55-1-5.6-2.32l-2.83-3.63c-3.4-.16-6.55-1.3-8.61-3.88l-1.78-2.22a11.76,11.76,0,0,1-2.77-8.2C246.33,3.12,252.09,0,258,0c4.32,0,7.85,1.34,10.33,4.9L270,7.28a11.9,11.9,0,0,1,2,7.12A11.89,11.89,0,0,1,269.92,21.68ZM258,20.88a2.24,2.24,0,0,1-2.19-1.2c.09-1.24.76-2.67,1.75-2.67,3.05,0-1.34,10.9,7.94,10.9,4.36,0,6-3.85,6.61-5.47l-.82-.51a5.36,5.36,0,0,1-3.21.89c-7.22,0-5.53-7.18-10.17-7.18a2.59,2.59,0,0,0-2.71,2,42,42,0,0,1-.28-6.23c0-5.75.41-9.44,3.08-9.44,2.83,0,3.08,3.69,3.08,9.44,0,1.84,0,3.31-.12,4.64,1.14,1,2,3.21,3.3,4.48,2.74-1.62,4.64-4.54,4.64-9.28,0-7.85-5.34-10.43-10.9-10.43s-10.9,2.9-10.9,10.75S252.44,22,258,22ZM247.8,10.62h6.51V11h-6.55A2.71,2.71,0,0,1,247.8,10.62Zm6.51,1V12h-6.55v-.41Zm-6.51.95h6.51v.42h-6.48S247.8,12.68,247.8,12.52Zm.09-2.86h6.42v.42h-6.48Zm0,3.82h6.42v.41H248A1.68,1.68,0,0,1,247.89,13.48Zm6.45-4.36H248l.1-.41h6.29Zm-6.29,5.31h6.29v.41h-6.19Zm6.33-6.26h-6.2l.12-.41h6.11S254.38,8,254.38,8.17Zm-6.08,7.21h6.08l0,.42h-5.95C248.4,15.67,248.3,15.38,248.3,15.38Zm.39-8.58h5.78s0,.35,0,.42h-5.95Zm0,9.54h5.79l0,.41h-5.59A4,4,0,0,1,248.65,16.34Zm5.88-10.08h-5.59c.06-.13.22-.41.22-.41h5.44C254.57,6,254.53,6.26,254.53,6.26Zm-5.34,11h5.34l.07.42h-5.15ZM254.76,4.9c0,.19-.07.41-.07.41h-5.18c.16-.22.32-.41.32-.41Zm-4.9,13.35h5.72c-.06.12-.16.41-.16.41h-5.18Zm5-13.9h-4.57l.41-.41H255Zm-4,14.85h4.45a1.67,1.67,0,0,0-.07.41h-3.84A4.57,4.57,0,0,1,250.85,19.2ZM255.2,3.4h-3.78s.38-.28.6-.41h3.37Zm-2.92,16.75h3.11a2.22,2.22,0,0,0,.32.42h-2.54C252.88,20.44,252.56,20.31,252.28,20.15ZM256.09,2l-.35.42H253A9.93,9.93,0,0,1,254.12,2ZM257,21.36a6.21,6.21,0,0,1-2-.29h1.4a3,3,0,0,0,.63.26Zm-.13-19.77h-1.43a10.82,10.82,0,0,1,2-.29A1.66,1.66,0,0,0,256.85,1.59Zm.93,14.75h.79a2.74,2.74,0,0,1,.95.41h-.92a1.37,1.37,0,0,0-.82-.35Zm.25-1.5a4.41,4.41,0,0,1,2.23.64c.09-1.21.06-2.51.06-4.1a44.62,44.62,0,0,0-.25-5.5c-1.79.32-2,3.62-2,8.68Zm2.64-13.25h-1.4a1.88,1.88,0,0,0-.54-.29A10.44,10.44,0,0,1,260.67,1.59Zm-1.62,15.7h1.05a2.42,2.42,0,0,1,.31.42h-1.2A2.41,2.41,0,0,0,259.05,17.29Zm.32,1h1.39a4,4,0,0,1,.26.41h-1.56Zm.15.95h1.79l.25.41h-2Zm.1.95h2.26l.28.42h-2.51Zm.1,1h2.86l.38.41h-3.18C259.75,21.36,259.72,21.11,259.72,21.11Zm.12.95h3.69a7,7,0,0,0,.6.41h-4.22C259.87,22.31,259.84,22.06,259.84,22.06Zm3.31-19.61h-2.77A1.5,1.5,0,0,0,260,2h2C262.42,2.16,262.8,2.29,263.15,2.45ZM260,23h5.28a11.69,11.69,0,0,0,2.35.42h-7.53Zm.29,1h10.46l-.26.41h-10ZM264.83,3.4h-3.91L260.73,3h3.47Zm-4.07,21.52h9.38l-.35.41H261Zm5.15-20.57h-4.67l-.13-.41h4.39Zm.77,1h-5.25l-.09-.41h5.05Zm.54,1h-5.66a2.25,2.25,0,0,0-.06-.41H267ZM261.5,25.87h7.78l-.54.42H262A2.93,2.93,0,0,1,261.5,25.87Zm.12-19.07h5.85a2.41,2.41,0,0,0,.16.42h-6Zm6.3,1.37h-6.23c0-.13,0-.25,0-.41h6.14Zm-6.23,7.21h5.94a1.41,1.41,0,0,1-.16.42h-5.78s0,0,0,0S261.69,15.51,261.69,15.38Zm6.42-6.26h-6.39V8.71H268Zm.09,1h-6.45c0-.13,0-.26,0-.42h6.45A2,2,0,0,1,268.2,10.08Zm-6.45,3.4h6.33a1.67,1.67,0,0,1-.07.41h-6.29C261.72,13.76,261.75,13.64,261.75,13.48Zm0,.95h6.2c0,.16-.1.29-.13.41h-6.07Zm6.55-3.4h-6.52v-.41h6.48C268.23,10.78,268.27,10.9,268.27,11Zm0,1h-6.48v-.41h6.52C268.27,11.73,268.23,11.86,268.23,12Zm-.06,1h-6.42v-.42h6.45C268.2,12.68,268.17,12.81,268.17,12.94Zm-6,3.4h5.12a1.78,1.78,0,0,1-.22.41h-4.58Zm.67.95h3.91l-.26.42h-3.4Zm.13,9.54h4.86a6,6,0,0,1-1.62.41h-1.4A7.34,7.34,0,0,1,262.93,26.83Zm.41-8.58H266l-.38.41h-2.07Zm.6.95h1.12a3.07,3.07,0,0,1-.54.41h-.23A2.36,2.36,0,0,1,263.94,19.2ZM271,23.43h-2.38a5.5,5.5,0,0,0,2.06-.42h.51Z"/><path d="M275.93,20.79a9.92,9.92,0,0,1-2.29-6.74V5.56L271.8,3.15V.51c2.13,0,4.26.13,6.54.13,2.07,0,4.14-.13,6.68-.13,1.78,0,3.27.13,5,.13,1.49,0,3-.13,4.58-.13l2.29,3.08V6.26c-.29,0-2.83.92-2.83,4.55v5.34c0,7-3.31,9.5-8.84,9.5-3.21,0-5.82-.82-7.6-2.86Zm6.26-18.28,1.88-.13V1.3c-1.34,0-4.74.13-5.73.13s-4.41-.13-5.75-.13V2.38l1.84.13V14.05c0,6.07,3.66,7.72,8.4,7.72,5.08,0,8.13-2.32,8.13-8.8V7.63c0-4.17,2.55-5.25,2.83-5.25V1.3c-1.59,0-2.51.13-3.78.13s-2.35-.13-3.94-.13V2.38c1.17,0,3.62,1.08,3.62,5.25v5.28c0,5.24-2.1,6.1-3.94,6.1-2.29,0-3.56-1.65-3.56-6.33ZM280.86,2h.69v.42h-6.48V2h.76c1.05,0,2.1,0,2.51,0S280,2.07,280.86,2Zm-5.79,1h6.48V3.4h-6.48Zm0,.95h6.48v.41h-6.48Zm0,1h6.48v.41h-6.48Zm0,.95h6.48v.41h-6.48Zm0,1h6.48v.42h-6.48Zm0,1h6.48v.41h-6.48Zm0,1h6.48v.41h-6.48Zm0,.95h6.48v.42h-6.48Zm0,1h6.48V11h-6.48Zm0,1h6.48V12h-6.48Zm6.48,1.37h-6.48v-.42h6.48Zm0,1h-6.52v-.41h6.48Zm.06.95H275.1s0-.25,0-.41h6.55C281.62,14.59,281.65,14.84,281.65,14.84Zm-6.52.54h6.58l.07.42H275.2Zm6.9,1.37h-6.64l-.1-.41h6.61C281.94,16.5,282,16.75,282,16.75Zm-6.45.54h6.64l.19.42h-6.67A1.41,1.41,0,0,1,275.58,17.29Zm.44,1h6.71l.35.41h-6.77A2.69,2.69,0,0,1,276,18.25Zm.73.95h7.06a3.31,3.31,0,0,0,1.3.41h-7.88A3.37,3.37,0,0,1,276.75,19.2Zm1.28.95h9.18a4.54,4.54,0,0,1-.89.42H279A4.8,4.8,0,0,1,278,20.15Zm2.83.92v0h3.71v0a7.89,7.89,0,0,1-1.74.16A9.83,9.83,0,0,1,280.86,21.07Zm4.51-3c0,.06.25.12.38.12,1.49,0,3.15-.76,3.15-5.3V7.63a5.93,5.93,0,0,0-.1-1.15,6.21,6.21,0,0,0-1.65-.28c-.38,0-1.78.16-1.78.16ZM288,19.61h-1.5a3.4,3.4,0,0,0,1.37-.41h.57ZM287.15,2h1.08c.6,0,1.18,0,1.81,0s1.18,0,1.69,0h1.4l-.64.42H288A5.67,5.67,0,0,0,287.15,2Zm2.07,16.22s-.16.22-.32.41h-.38a4.75,4.75,0,0,0,.41-.41ZM288.67,3h3.25c-.13.13-.35.41-.35.41h-2.51Zm.77.95h1.78l-.22.41h-1.34Zm.44,1h.89l-.12.41H290Zm.29.95h.32c0,.13-.07.41-.07.41h-.19Zm.09,1h.13l0,.42h-.06Z"/><path d="M316.87,12.87,314,9.57v3.11h2.35L319,16.24l-.13,9.06c-3.4,0-6.83-.12-10.87-.12-2.89,0-5.91.12-9.66.12L296,22.22V19.61l1.91-.16V5.63L296,3.12V.48c2.7,0,5.43.12,8.61.12,3.59,0,7.15-.09,11.13-.12l2.29,3,.41,9.37Zm-20.06,8.55c1.47,0,4.77-.12,8.81-.12,3.3,0,7.5.12,10.17.12l.19-8.16h-1.14l-.1.47c-.16.86-2.45,6.49-7.91,6.49h-.73V11.51l.22,0c1.87.25,3.49,2.76,3.49,4H311V7.18h-1.15c0,1.28-1.84,3-3.49,3.21l-.22,0V2.48h1.3c4.32,0,6.48,5.05,6.64,5.69l.13.57h1.14L315,1.27c-2.17,0-7.41.13-10.37.13-3.3,0-6.42-.13-7.82-.13V2.35l1.91.13V20.22l-1.91.12ZM299.39,2h6v.42h-6Zm0,1h6V3.4h-6Zm0,.95h6v.41h-6Zm0,1h6v.41h-6Zm0,.95h6v.41h-6Zm0,1h6v.42h-6Zm0,1h6v.41h-6Zm0,1h6v.41h-6Zm0,.95h6v.42h-6Zm0,1h6V11h-6Zm0,1h6V12h-6Zm0,.95h6v.42h-6Zm0,1h6v.41h-6Zm0,.95h6v.41h-6Zm0,1h6v.42h-6Zm0,1h6v.41h-6Zm0,.95h6v.42h-6Zm0,1h6v.41h-6Zm0,.95h6v.41h-6Zm0,.95h6v.42h-6Zm8.36-9.53h2.54V11l-3.53.06V11A5.05,5.05,0,0,0,307.75,10.62Zm.28,1h2.26V12h-1.78ZM309,9.66h1.33v.42h-1.84A3.45,3.45,0,0,0,309,9.66Zm1,10.49h5.25v.42h-6.42A5.45,5.45,0,0,0,309.94,20.15ZM309,12.52h1.27v.42h-1A3.9,3.9,0,0,0,309,12.52ZM309.21,2h5.15v.42h-4.2C309.85,2.29,309.53,2.16,309.21,2Zm.6,6.68h.48v.41h-.79A1.84,1.84,0,0,0,309.81,8.71Zm-.09,4.77h.57v.41h-.35C309.88,13.76,309.78,13.64,309.72,13.48Zm.57-5.31h-.13l.1-.29h0Zm-.06,6.26h.12v.32h0Zm1.33,4.77h3.63v.41H311A3.53,3.53,0,0,0,311.56,19.2ZM311,3h3.37V3.4h-2.86Zm1.08.95h2.32l0,.41h-2Zm.54,14.31h2.58v.41h-3A5.29,5.29,0,0,0,312.64,18.25Zm.29-13.35h1.56l0,.41h-1.3Zm.57,12.39h1.72v.42h-2.07Zm.1-11.44h.95l0,.41h-.76Zm.57,10.49h1.05v.41h-1.34Zm0-9.54h.47l0,.42h-.32Zm.57,8.58h.51v.42h-.73C314.55,15.67,314.65,15.54,314.71,15.38Zm-.16-7.62h.13V8l0,0Zm.6,6.67h.1v.41H315Z"/></g></g></svg>