<svg xmlns="http://www.w3.org/2000/svg" viewBox="0 0 370.54 149.52"><defs><style>.cls-1{fill:#fc6;}</style></defs><title>logo_golden</title><g id="Layer_2" data-name="Layer 2"><g id="Layer_1-2" data-name="Layer 1"><path class="cls-1" d="M27.39,61.73c2,0,4,.06,6.46.06,1.68,0,3.49-.06,7.56-.06,3.69,0,5.66,1.08,6.87,2.83l1.91,2.73A4.38,4.38,0,0,1,51,69.9a5,5,0,0,1-1.87,4.19l1.65,2.16A6.65,6.65,0,0,1,52,80.51c0,3.75-3,6-8.17,6-2.48,0-5-.06-7.6-.06-1.78,0-3.72.06-6.55.06l-2.32-3.08V80.8l1.91-.06V66.91L27.39,64.4Zm.8,1.87,1.91.07V81.53l-1.91.06v1.08c1.37,0,4.45-.06,5.69-.06s4.42.06,7.6.06c4.73,0,7.47-2,7.47-5.34s-1.59-5.15-5.09-5.62v-.13c2.89-.92,4.07-2.51,4.07-4.86,0-2.58-2.23-4.2-6.52-4.2-4,0-6.32.07-7.53.07s-4.32-.07-5.69-.07Zm2.57-.32h6.07v.42H30.76Zm0,1h6.07v.41H30.76Zm0,1h6.07v.41H30.76Zm0,1h6.07v.41H30.76Zm0,.95h6.07v.41H30.76Zm0,1h6.07v.42H30.76Zm0,1h6.07v.41H30.76Zm0,.95h6.07v.41H30.76Zm0,1h6.07v.42H30.76Zm0,1h6.07v.41H30.76Zm0,.95h6.07v.41H30.76Zm0,1h6.07v.42H30.76Zm0,1h6.07v.41H30.76Zm0,1h6.07v.41H30.76Zm0,.95h6.07v.42H30.76Zm0,1h6.07V78H30.76Zm0,1h6.07V79H30.76Zm0,1h6.07v.41H30.76Zm0,1h6.07v.41H30.76Zm0,1h6.07v.42H30.76Zm7.6-17.8c1.81,0,2.61,1.18,2.61,3.47s-.51,4.19-2.32,4.19H37.47V63.6Zm.29,8.74c1.94,0,2.67,1.21,2.67,4.64,0,2.29-.23,4.61-2.16,4.61H37.47V72.34Zm1.2-9.06H43a9.91,9.91,0,0,1,1.85.42H40.49A4.16,4.16,0,0,0,39.85,63.28ZM40,71.87h2a10.32,10.32,0,0,1,1.85.38v0H40.71A2.74,2.74,0,0,0,40,71.87Zm.67-1h3c-.16.1-.64.35-.8.42h-2.6A2.71,2.71,0,0,0,40.68,70.91ZM41,81.4h4.23a7.31,7.31,0,0,1-1.5.42H40.55A2,2,0,0,0,41,81.4Zm0-17.16h5a2.82,2.82,0,0,1,.47.41H41.16ZM41.19,70h4.39a3.15,3.15,0,0,1-.67.41H41Zm0,2.86h4.2a5.6,5.6,0,0,1,.85.41H41.41Zm5-3.4H41.35l.09-.41h5.12A2,2,0,0,1,46.21,69.42Zm-4.7,11h5.37l-.54.41h-5Zm-.13-15.26h5.47l.19.41H41.48Zm5.5,3.28H41.51l.06-.42H47A1.75,1.75,0,0,1,46.88,68.47Zm-5.34-2.32H47.2a1.84,1.84,0,0,1,.06.41H41.57A1.84,1.84,0,0,0,41.54,66.15Zm.06.95h5.63c0,.16,0,.28,0,.41H41.6Zm0,6.67h5.34a2.06,2.06,0,0,1,.38.42H41.7Zm.16,5.73h6l-.29.41H41.67Zm.07-4.77h5.88l.19.41h-6C41.86,75,41.83,74.85,41.83,74.73ZM48,79h-6.1a2.13,2.13,0,0,1,0-.42h6.2A1.72,1.72,0,0,1,48,79Zm-6-3.28h6.17l.06.41H41.92Zm0,1.91h6.33a1.3,1.3,0,0,1-.07.41H41.92C41.92,77.87,42,77.75,42,77.59Zm0-1h6.3c0,.13,0,.29,0,.42H42Z"/><path class="cls-1" d="M59.15,61.79c2.51,0,4.23-.06,7.66-.06s5.85.73,7.28,2.79l1.84,2.71a5.05,5.05,0,0,1,.86,3A5,5,0,0,1,74,74.92l1.49,2a7.25,7.25,0,0,1,1.65,4.29L79.24,84v2.48a29,29,0,0,1-4.42.38c-3.53,0-5.5-.73-6.51-2.1v1.78c-2,0-4.1-.12-6.55-.12-2.07,0-4.13.09-6.52.12l-2.32-3.08V80.86l1.91-.16V66.91L52.92,64.4V61.73C54.64,61.73,56.35,61.76,59.15,61.79Zm-5.43.73V63.6l1.9.07v17.8l-1.9.12v1.08c1.33,0,4.32-.12,5.65-.12,2,0,4.58.12,5.85.12V81.59L63,81.47V72.92h.09c2.67,0,2.77,2,2.77,5.08,0,3.37,1.08,5,6.58,5a24.26,24.26,0,0,0,3.72-.28V81.63s-.29,0-.48,0c-1.11,0-1.59-.42-1.59-2.83,0-5.31-3.59-5.88-7-6.33v-.16c4-.6,6.58-2,6.58-5.27,0-3.5-2.92-4.55-6.9-4.55-2.89,0-6.32.07-7.56.07S55.11,62.52,53.72,62.52Zm2.57.76h6v.42h-6Zm0,1h6v.41h-6Zm0,1h6v.41h-6Zm0,1h6v.41h-6Zm0,.95h6v.41h-6Zm0,1h6v.42h-6Zm0,1h6v.41h-6Zm0,.95h6v.41h-6Zm0,1h6v.42h-6Zm0,1h6v.41h-6Zm0,.95h6v.41h-6Zm0,1h6v.42h-6Zm0,1h6v.41h-6Zm0,1h6v.41h-6Zm0,.95h6v.42h-6Zm0,1h6V78h-6Zm0,1h6V79h-6Zm0,1h6v.41h-6Zm0,1h6v.41h-6Zm0,1h6v.42h-6ZM63,63.6h.47c2.48,0,2.64,1.53,2.64,4,0,2.76-.51,4.26-3,4.26H63Zm2.16,8.27h2a12.36,12.36,0,0,1-1.37.41H64.08A3.52,3.52,0,0,0,65.16,71.87Zm-.16.95h1.14c1,.13,2.1.41,2.1.41H65.51A5.6,5.6,0,0,0,65,72.82Zm5.72-9.12h-4.8a2.59,2.59,0,0,0-.54-.42h3.78A7.72,7.72,0,0,1,70.72,63.7Zm-4.58,7.21H70c-.41.16-.82.29-1.27.42H65.83A5.1,5.1,0,0,0,66.14,70.91Zm-.25,2.86h4.2a6.77,6.77,0,0,1,.92.42H66.08S66,74,65.89,73.77Zm.35,1h5.59l.42.41H66.34Zm6-10.08H66.49l-.19-.41h5.44A3.15,3.15,0,0,1,72.22,64.65ZM66.53,70h5.18a3.25,3.25,0,0,1-.61.41H66.4C66.43,70.25,66.49,70.12,66.53,70Zm6.35,6.13H66.43c0-.12,0-.41,0-.41h6.26Zm.35,1H66.49a4.06,4.06,0,0,0,0-.42h6.65A2.73,2.73,0,0,1,73.23,77.05Zm.16,1h-6.9v-.41h6.87S73.39,77.87,73.39,78Zm-6.9.54h7V79H66.53A3.6,3.6,0,0,1,66.49,78.54ZM72.82,65.6H66.68a2,2,0,0,0-.06-.41h6Zm-6.2,13.9h6.84c0,.15,0,.41,0,.41H66.72ZM66.68,69h5.85a1.25,1.25,0,0,1-.28.41h-5.6C66.65,69.29,66.68,69.17,66.68,69ZM73,66.56H66.75v-.41H73Zm-6.26,1.49H73a2.3,2.3,0,0,1-.13.42H66.75C66.75,68.34,66.78,68.21,66.78,68.05ZM73,67.51H66.78V67.1h6.29A1.76,1.76,0,0,1,73,67.51Zm-6.1,12.94h6.61s0,.29.06.41H67.19C67.1,80.74,66.94,80.45,66.94,80.45Zm.83,1h6.07a1,1,0,0,0,.28.42H68.53A4.19,4.19,0,0,1,67.77,81.4Z"/><path class="cls-1" d="M99.4,74.12l-2.87-3.3v3.11h2.36l2.64,3.56-.13,9.06c-3.4,0-6.84-.12-10.87-.12-2.9,0-5.92.12-9.67.12l-2.32-3.08V80.86l1.91-.16V66.88l-1.91-2.51V61.73c2.7,0,5.44.12,8.62.12,3.59,0,7.15-.09,11.12-.12l2.29,3,.41,9.37ZM79.34,82.67c1.46,0,4.77-.12,8.8-.12,3.31,0,7.5.12,10.17.12l.2-8.16H97.36l-.09.47c-.16.86-2.45,6.49-7.92,6.49h-.73V72.76l.22,0c1.88.25,3.5,2.76,3.5,4h1.14v-8.4H92.34c0,1.28-1.85,3-3.5,3.21l-.22,0v-8h1.3c4.33,0,6.49,5.05,6.65,5.69l.12.57h1.15l-.32-7.47c-2.16,0-7.41.13-10.36.13-3.31,0-6.42-.13-7.82-.13V63.6l1.9.13V81.47l-1.9.12Zm2.57-19.39h6v.42h-6Zm0,1h6v.41h-6Zm0,1h6v.41h-6Zm0,1h6v.41h-6Zm0,.95h6v.41h-6Zm0,1h6v.42h-6Zm0,1h6v.41h-6Zm0,.95h6v.41h-6Zm0,1h6v.42h-6Zm0,1h6v.41h-6Zm0,.95h6v.41h-6Zm0,1h6v.42h-6Zm0,1h6v.41h-6Zm0,1h6v.41h-6Zm0,.95h6v.42h-6Zm0,1h6V78h-6Zm0,1h6V79h-6Zm0,1h6v.41h-6Zm0,1h6v.41h-6Zm0,1h6v.42h-6Zm8.36-9.53h2.55v.41l-3.53.06v-.12A4.93,4.93,0,0,0,90.27,71.87Zm.29.95h2.26v.41H91Zm.92-1.91h1.34v.42H91A3.45,3.45,0,0,0,91.48,70.91Zm1,10.49h5.24v.42H91.29A5.73,5.73,0,0,0,92.47,81.4Zm-.93-7.63h1.28v.42h-1A2.92,2.92,0,0,0,91.54,73.77Zm.19-10.49h5.15v.42H92.69C92.37,63.54,92.05,63.41,91.73,63.28ZM92.34,70h.48v.41H92A1.88,1.88,0,0,0,92.34,70Zm-.1,4.77h.58v.41h-.35C92.4,75,92.31,74.89,92.24,74.73Zm.58-5.31h-.13l.09-.29h0Zm-.07,6.26h.13V76h0Zm1.34,4.77h3.62v.41H93.48A3.25,3.25,0,0,0,94.09,80.45Zm-.54-16.21h3.37v.41H94.06Zm1.08,1H97l0,.41H95Zm.54,14.31h2.57v.41h-3C94.88,79.78,95,79.65,95.17,79.5Zm.28-13.35H97l0,.41h-1.3ZM96,78.54h1.71V79H95.68Zm.09-11.44h.95l0,.41h-.77Zm.57,10.49h1V78H96.41Zm0-9.54h.48l0,.42h-.32Zm.57,8.58h.51v.42H97C97.07,76.92,97.17,76.79,97.23,76.63ZM97.07,69h.13v.25l0,0Zm.61,6.67h.09v.41h-.28Z"/><path class="cls-1" d="M108.11,86.43c-1,0-2,.12-3.21.12h-1.53l-2.32-3.08V80.83c.86,0,2.73,0,4.45-4.58L111,61.85h5.59l1.78,2.39,5.91,16.5,1.34.09,2.29,3v2.67H126c-1.21,0-2.57-.12-4.54-.12-2.39,0-4.87.12-7.7.12C111.79,86.55,110.17,86.43,108.11,86.43Zm16.68-3.76V81.59l-2.28-.15-6.77-18.85h-4.2l-5.28,14c-1.9,5-3.62,5-4.42,5v1.08h.67c1.18,0,2-.12,3.21-.12,1.46,0,3.12.12,4.33.12h.63V81.59c-2.07,0-3.56-1-3.56-2.83a5.1,5.1,0,0,1,.35-1.65l.25-.67h5.35l1.74,5-2.64.15v1.08c2.13,0,5.19-.12,6.9-.12ZM104,81.4h3.65a3.09,3.09,0,0,0,.73.42h-5A4.71,4.71,0,0,0,104,81.4Zm.92-1h1.91a1.66,1.66,0,0,0,.25.41h-2.51Zm.64-1h.92l.09.41h-1.27Zm.5-1h.35V79h-.57C105.94,78.83,106,78.7,106.1,78.54Zm.42-1h.09l-.09.41h-.19Zm3.94-8.49h.06l2.13,6.17h-4.48Zm.06-2h6.11l.15.41h-6.1Zm.32-.95h5.44l.15.41h-5.75Zm0,1.9H117l.16.42H111Zm.35-2.86H116l.12.41h-5Zm0,3.82h6.13l.16.41h-6.13Zm.38-4.77h4l.16.41h-4.36Zm2.13,16.53-1.11-3-1.18,3.17ZM111.54,70h6.13l.16.41h-6.16Zm.41-6.68h3.34l.13.42h-3.63Zm-.09,7.63H118l.16.42H112Zm.35,1h6.16l.16.41h-6.2Zm.31.95h6.2l.16.41h-6.2Zm.35,1h6.2l.16.42H113Zm.32,1h6.23l.16.41h-6.23Zm.32,1h6.26l.16.41h-6.26Zm.35.95h6.26l.13.42H114Zm.32,1h6.26l.16.41h-6.3Zm.32,1h6.29L121,79h-6.33Zm.31,1h6.33l.16.41H115Zm.32,1h6.36l.16.41h-6.36Zm.32,1h6.39l.16.42h-6.39Z"/><path class="cls-1" d="M127,83.47V80.86l1.91-.12V66.88L127,64.37V61.73c2.1,0,4.2.06,7.09.06,2.35,0,3,0,5,0,5,0,8,1.37,10.08,4.32l1.87,2.74a10.77,10.77,0,0,1,1.69,6.48c0,6.58-2.74,11.25-10.33,11.25-2.23,0-4.42-.06-6.81-.06-1.68,0-3.52.06-6.26.06Zm13-.8c7.09,0,9.63-4.38,9.63-10.55,0-6.67-3.68-9.57-10.55-9.57-1.53,0-4.7,0-5.88,0s-4-.07-5.4-.07V63.6l1.9.1V81.5l-1.9.09v1.08c1.39,0,3.65-.06,5.4-.06S137.73,82.67,140,82.67Zm-9.66-19.39h6.1v.42h-6.1Zm0,1h6.1v.41h-6.1Zm0,1h6.1v.41h-6.1Zm0,1h6.1v.41h-6.1Zm0,.95h6.1v.41h-6.1Zm0,1h6.1v.42h-6.1Zm0,1h6.1v.41h-6.1Zm0,.95h6.1v.41h-6.1Zm0,1h6.1v.42h-6.1Zm0,1h6.1v.41h-6.1Zm0,.95h6.1v.41h-6.1Zm0,1h6.1v.42h-6.1Zm0,1h6.1v.41h-6.1Zm0,1h6.1v.41h-6.1Zm0,.95h6.1v.42h-6.1Zm0,1h6.1V78h-6.1Zm0,1h6.1V79h-6.1Zm0,1h6.1v.41h-6.1Zm0,1h6.1v.41h-6.1Zm0,1h6.1v.42h-6.1Zm8,.19H137.1v-18H138c3.31,0,4,3.09,4,8.39C142,77,141.74,81.59,138.37,81.59Zm5-17.89h-2.8a5.78,5.78,0,0,0-.73-.42h1.33A14.83,14.83,0,0,1,143.33,63.7Zm-2.7,17.7h3.24a7.9,7.9,0,0,1-1.56.42H140A2.76,2.76,0,0,0,140.63,81.4Zm5-16.75h-4.19l-.29-.41h3.69A5.87,5.87,0,0,1,145.58,64.65Zm-4.16,15.8h4.29a5.23,5.23,0,0,1-.67.41h-3.91Zm5.37-14.85h-4.92c0-.12-.13-.28-.19-.41h4.67Zm-5,13.9h4.93a3.18,3.18,0,0,1-.41.41h-4.67A1.82,1.82,0,0,0,141.83,79.5Zm.29-1h5.34l-.25.42H142Zm5.47-12h-5.44l-.09-.41h5.21A3,3,0,0,1,147.59,66.56ZM147.78,78h-5.53a1.68,1.68,0,0,0,.06-.41H148C147.94,77.75,147.84,77.87,147.78,78Zm.35-10.49h-5.76l-.06-.41h5.6A4.1,4.1,0,0,1,148.13,67.51Zm-5.69,9.12h5.94l-.16.42h-5.81A1.84,1.84,0,0,0,142.44,76.63Zm6.07-8.16h-6c0-.13,0-.29,0-.42h5.88Zm-6,7.21h6.11l-.1.41h-6A1.84,1.84,0,0,0,142.53,75.68Zm6.23-6.26h-6.2V69h6.08C148.67,69.17,148.73,69.29,148.76,69.42Zm.16,1h-6.29c0-.12,0-.25,0-.41h6.26A1.61,1.61,0,0,0,148.92,70.37Zm-6.32,4.36h6.23l-.07.41H142.6Zm0-3.82H149a1.5,1.5,0,0,1,0,.42h-6.33C142.66,71.2,142.63,71.07,142.63,70.91Zm6.26,3.28h-6.26v-.42h6.29A1.84,1.84,0,0,1,148.89,74.19Zm.13-2.32v.41h-6.36v-.41Zm-6.36.95H149v.41h-6.33Z"/><path class="cls-1" d="M160.81,61.73c2,0,4,.06,6.46.06,1.68,0,3.49-.06,7.56-.06,3.69,0,5.66,1.08,6.87,2.83l1.9,2.73a4.39,4.39,0,0,1,.83,2.61,5,5,0,0,1-1.87,4.19l1.65,2.16a6.65,6.65,0,0,1,1.24,4.26c0,3.75-3,6-8.17,6-2.48,0-5-.06-7.6-.06-1.78,0-3.72.06-6.55.06l-2.32-3.08V80.8l1.91-.06V66.91l-1.91-2.51Zm.8,1.87,1.9.07V81.53l-1.9.06v1.08c1.36,0,4.45-.06,5.69-.06s4.42.06,7.59.06c4.74,0,7.47-2,7.47-5.34s-1.58-5.15-5.08-5.62v-.13c2.89-.92,4.07-2.51,4.07-4.86,0-2.58-2.23-4.2-6.52-4.2-4,0-6.32.07-7.53.07s-4.33-.07-5.69-.07Zm2.57-.32h6.07v.42h-6.07Zm0,1h6.07v.41h-6.07Zm0,1h6.07v.41h-6.07Zm0,1h6.07v.41h-6.07Zm0,.95h6.07v.41h-6.07Zm0,1h6.07v.42h-6.07Zm0,1h6.07v.41h-6.07Zm0,.95h6.07v.41h-6.07Zm0,1h6.07v.42h-6.07Zm0,1h6.07v.41h-6.07Zm0,.95h6.07v.41h-6.07Zm0,1h6.07v.42h-6.07Zm0,1h6.07v.41h-6.07Zm0,1h6.07v.41h-6.07Zm0,.95h6.07v.42h-6.07Zm0,1h6.07V78h-6.07Zm0,1h6.07V79h-6.07Zm0,1h6.07v.41h-6.07Zm0,1h6.07v.41h-6.07Zm0,1h6.07v.42h-6.07Zm7.6-17.8c1.81,0,2.61,1.18,2.61,3.47s-.51,4.19-2.32,4.19h-1.18V63.6Zm.29,8.74c1.93,0,2.67,1.21,2.67,4.64,0,2.29-.23,4.61-2.17,4.61h-1.68V72.34Zm1.2-9.06h3.15a9.62,9.62,0,0,1,1.84.42h-4.35A4.16,4.16,0,0,0,173.27,63.28Zm.16,8.59h2a10.32,10.32,0,0,1,1.85.38v0h-3.12A2.74,2.74,0,0,0,173.43,71.87Zm.67-1h3c-.16.1-.64.35-.8.42h-2.6A2.71,2.71,0,0,0,174.1,70.91Zm.32,10.49h4.23a7.31,7.31,0,0,1-1.5.42H174A2,2,0,0,0,174.42,81.4Zm0-17.16h5a2.92,2.92,0,0,1,.48.41h-5.24Zm.22,5.72H179a3.43,3.43,0,0,1-.67.41h-3.91Zm0,2.86h4.19a5.29,5.29,0,0,1,.86.41h-4.83Zm5-3.4h-4.86l.09-.41H180A2.3,2.3,0,0,1,179.63,69.42Zm-4.7,11h5.37l-.54.41h-5Zm-.13-15.26h5.47l.19.41h-5.57Zm5.5,3.28h-5.37l.06-.42h5.47A1.75,1.75,0,0,1,180.3,68.47ZM175,66.15h5.66a1.84,1.84,0,0,1,.06.41H175A1.84,1.84,0,0,0,175,66.15Zm.06.95h5.63c0,.16,0,.28,0,.41H175Zm0,6.67h5.34a2.06,2.06,0,0,1,.38.42h-5.62Zm.16,5.73h5.94l-.28.41h-5.75Zm.06-4.77h5.88l.2.41h-6C175.28,75,175.24,74.85,175.24,74.73ZM181.38,79h-6.1a2.13,2.13,0,0,1,0-.42h6.2A2.3,2.3,0,0,1,181.38,79Zm-6-3.28h6.17l.06.41h-6.23Zm0,1.91h6.33a1.3,1.3,0,0,1-.07.41h-6.29C175.34,77.87,175.37,77.75,175.37,77.59Zm0-1h6.3c0,.13,0,.29,0,.42h-6.33Z"/><path class="cls-1" d="M188.15,81.15a12.22,12.22,0,0,1-2.76-8.36c0-8.42,5.75-11.54,11.69-11.54,4.23,0,8,1.34,10.33,4.86L209,68.5a12.44,12.44,0,0,1,2.07,7.15c0,8.39-5.59,11.51-11.6,11.51a12.2,12.2,0,0,1-9.54-4ZM208,72.47C208,64.62,202.68,62,197.08,62s-10.9,2.9-10.9,10.75,5.31,10.49,10.9,10.49S208,80.35,208,72.47Zm-21.11-.6h6.83v.41h-6.86A2,2,0,0,1,186.88,71.87Zm0,.95h6.86v.41h-6.86Zm0,1h6.83v.42h-6.8S186.88,73.93,186.88,73.77Zm6.83-2.44h-6.8l.07-.42h6.73ZM187,74.73h6.73v.41H187S187,74.82,187,74.73Zm6.73-4.36H187l.09-.41h6.58Zm0,5.72h-6.52l-.1-.41h6.62Zm0-6.67h-6.49c0-.13.13-.41.13-.41h6.36Zm-6.36,7.21h6.39v.42h-6.26Zm6.39-8.16h-6.2a1.81,1.81,0,0,1,.16-.42h6.07S193.78,68.34,193.78,68.47Zm-6,9.12h6.07a2,2,0,0,1,0,.41H188A2.94,2.94,0,0,1,187.74,77.59Zm6.1-10.08H188a3.79,3.79,0,0,1,.22-.41h5.66S193.84,67.38,193.84,67.51Zm-5.59,11h5.65c0,.16,0,.29,0,.42h-5.41Zm5.69-12h-5.38a4.09,4.09,0,0,1,.32-.41H194Zm.19,13.35h-4.8L189,79.5H194Zm0-14.31h-4.77l.44-.41h4.42Zm-4.2,14.85h4.35s.07.25.13.41h-3.94A4.69,4.69,0,0,1,189.9,80.45Zm4.45-15.8h-3.94l.63-.41h3.47A2.31,2.31,0,0,0,194.35,64.65Zm-3,16.75h3.31a1.77,1.77,0,0,0,.25.42h-2.67A6.26,6.26,0,0,1,191.33,81.4Zm3.46-17.67H192a7.17,7.17,0,0,1,1.05-.41h2A2.24,2.24,0,0,0,194.79,63.73Zm-.89,18.63h1.78a2.92,2.92,0,0,0,.77.28A15.07,15.07,0,0,1,193.9,82.36Zm1.78-19.46H194a13.39,13.39,0,0,1,2.39-.28A2.71,2.71,0,0,0,195.68,62.9Zm-1.33,9.73c0-6.39.22-9.44,2.73-9.44s2.74,3,2.74,9.44-.19,9.5-2.74,9.5S194.35,79.34,194.35,72.63Zm3.21,8.65c1.34-.51,1.46-3.37,1.46-8.65,0-2.26,0-4.07-.16-5.44-1.3.58-1.43,3.37-1.43,8.62C197.43,78.1,197.43,79.91,197.56,81.28Zm.89,1.08h1.68a13,13,0,0,1-2.38.28A2.33,2.33,0,0,0,198.45,82.36ZM200,62.9h-1.53a2,2,0,0,0-.63-.28A11.28,11.28,0,0,1,200,62.9Zm2.29.83h-3a1.62,1.62,0,0,0-.32-.41h2.2A8.12,8.12,0,0,1,202.33,63.73ZM199.5,81.4h3.21a8.83,8.83,0,0,1-.89.42h-2.58A1.64,1.64,0,0,0,199.5,81.4ZM204,64.65h-4.16a2.31,2.31,0,0,0-.16-.41h3.72Zm-4.1,15.8h4.23a4.69,4.69,0,0,1-.54.41h-3.82A1.23,1.23,0,0,0,199.88,80.45ZM205,65.6h-5l-.09-.41h4.64A4.92,4.92,0,0,1,205,65.6ZM200.1,79.5h5l-.38.41H200Zm5.66-12.94h-5.53l-.06-.41h5.31ZM205.51,79H200.2l.06-.42h5.53ZM200.29,67.1h5.79a3.79,3.79,0,0,1,.22.41h-6Zm.07,10.49h5.94a2.94,2.94,0,0,1-.22.41h-5.75Zm6.35-9.12h-6.32v-.42h6.17S206.65,68.28,206.71,68.47Zm-6.29,8.16h6.26a2.17,2.17,0,0,1-.16.42h-6.13ZM207,69.42h-6.52l0-.41h6.45Zm-.13,6.67h-6.42l0-.41H207A2.65,2.65,0,0,1,206.84,76.09Zm.32-5.72h-6.71V70h6.65A2.69,2.69,0,0,1,207.16,70.37Zm-.1,4.77h-6.61v-.41h6.68A3.1,3.1,0,0,1,207.06,75.14Zm.2-3.81h-6.78v-.42h6.74S207.26,71.2,207.26,71.33Zm.06,1h-6.84v-.41h6.81S207.32,72.15,207.32,72.28Zm0,1h-6.81v-.41h6.84Zm-6.81.54h6.78a3.6,3.6,0,0,1,0,.42h-6.74Z"/><path class="cls-1" d="M214.5,82a9.92,9.92,0,0,1-2.28-6.74V66.81l-1.85-2.41V61.76c2.13,0,4.26.13,6.55.13,2.07,0,4.13-.13,6.68-.13,1.78,0,3.27.13,5,.13,1.49,0,3-.13,4.57-.13l2.29,3.08v2.67c-.28,0-2.83.92-2.83,4.55V77.4c0,7-3.3,9.5-8.83,9.5-3.21,0-5.82-.82-7.6-2.86Zm6.27-18.28,1.87-.13V62.55c-1.33,0-4.73.13-5.72.13s-4.42-.13-5.75-.13v1.08l1.84.13V75.3c0,6.07,3.66,7.72,8.39,7.72,5.09,0,8.14-2.32,8.14-8.8V68.88c0-4.17,2.54-5.25,2.83-5.25V62.55c-1.59,0-2.51.13-3.78.13s-2.36-.13-4-.13v1.08c1.18,0,3.63,1.08,3.63,5.25v5.28c0,5.24-2.1,6.1-3.94,6.1-2.29,0-3.56-1.65-3.56-6.33Zm-1.34-.48h.7v.42h-6.48v-.42h.76c1.05,0,2.1,0,2.51,0S218.54,63.32,219.43,63.28Zm-5.78,1h6.48v.41h-6.48Zm0,1h6.48v.41h-6.48Zm0,1h6.48v.41h-6.48Zm0,.95h6.48v.41h-6.48Zm0,1h6.48v.42h-6.48Zm0,1h6.48v.41h-6.48Zm0,.95h6.48v.41h-6.48Zm0,1h6.48v.42h-6.48Zm0,1h6.48v.41h-6.48Zm0,.95h6.48v.41h-6.48Zm6.48,1.37h-6.48v-.42h6.48Zm0,1h-6.51v-.41h6.48Zm.07,1h-6.55s0-.25,0-.41h6.54A3.34,3.34,0,0,0,220.23,76.09Zm-6.52.54h6.58l.06.42h-6.58Zm6.9,1.37H214l-.09-.41h6.61A2.88,2.88,0,0,0,220.61,78Zm-6.46.54h6.65L221,79h-6.68A2.3,2.3,0,0,1,214.15,78.54Zm.45,1h6.71l.35.41h-6.77A2.12,2.12,0,0,1,214.6,79.5Zm.73,1h7.06a3.26,3.26,0,0,0,1.3.41h-7.88A3.37,3.37,0,0,1,215.33,80.45Zm1.27,1h9.19a4.83,4.83,0,0,1-.89.42h-7.38A5.43,5.43,0,0,1,216.6,81.4Zm2.83.92v0h3.72v0a8,8,0,0,1-1.75.16A9.89,9.89,0,0,1,219.43,82.32Zm4.51-3a.67.67,0,0,0,.39.12c1.49,0,3.14-.76,3.14-5.3V68.88a6.88,6.88,0,0,0-.09-1.15,6.29,6.29,0,0,0-1.65-.28c-.39,0-1.79.16-1.79.16Zm2.61,1.52h-1.49a3.36,3.36,0,0,0,1.36-.41H227Zm-.82-17.58h1.08c.6,0,1.17,0,1.81,0s1.17,0,1.68,0h1.4l-.63.42h-4.49A5.58,5.58,0,0,0,225.73,63.28Zm2.06,16.22s-.16.22-.32.41h-.38a4.28,4.28,0,0,0,.42-.41Zm-.54-15.26h3.24c-.12.13-.35.41-.35.41h-2.51Zm.76,1h1.78l-.22.41h-1.33Zm.45,1h.89l-.13.41h-.63Zm.28.95h.32c0,.13-.06.41-.06.41h-.19Zm.1,1H229l0,.42h-.07Z"/><path class="cls-1" d="M255.61,61.73l2.29,3.08L258.31,75h-2.45l-2.32-3.08-.44-1.3c-.13-.39-.42-1.12-.77-1.94V80.58l2.51,3.3v2.67c-2.19,0-4.38-.12-6.89-.12-2.26,0-4.52.09-7.12.12l-2.32-3.08V80.83L241,80.7V71.8c-.39.89-.67,1.66-.77,2s-.35,1-.41,1.21h-2.48L235,71.9l.41-10.17c3.18,0,6.36.12,10.11.12C248.84,61.85,252.11,61.73,255.61,61.73Zm-19.39.79-.35,8.58H237l.25-.73c.16-.44,2.29-6.64,4.45-6.64h.16V81.47l-2.51.12v1.08c1.65,0,4.58-.12,6.26-.12s4.55.12,6.2.12V81.59l-2.51-.12V63.73h.16c2.16,0,4.29,6.17,4.45,6.64l.25.73h1.08l-.35-8.58c-3,0-6.07.13-9.28.13S239.2,62.52,236.22,62.52Zm.28,7.85V70h.16l-.13.41Zm.35-1h-.32V69H237Zm.38-1h-.66l0-.42h.82Zm.42-1h-1l0-.41h1.21Zm.47-1h-1.43v-.41h1.66Zm.54-1h-1.94l0-.41H239Zm.67-.95h-2.54l0-.41h2.86Zm.92-1h-3.43l0-.42h4.07A4.58,4.58,0,0,0,240.25,63.7Zm8.4-.42v.42h-6.2v-.42Zm-6.2,1h6.2v.41h-6.2Zm0,1h6.2v.41h-6.2Zm0,1h6.2v.41h-6.2Zm0,.95h6.2v.41h-6.2Zm0,1h6.2v.42h-6.2Zm0,1h6.2v.41h-6.2Zm0,.95h6.2v.41h-6.2Zm0,1h6.2v.42h-6.2Zm0,1h6.2v.41h-6.2Zm0,.95h6.2v.41h-6.2Zm0,1h6.2v.42h-6.2Zm0,1h6.2v.41h-6.2Zm0,1h6.2v.41h-6.2Zm0,.95h6.2v.42h-6.2Zm0,1h6.2V78h-6.2Zm0,1h6.2V79h-6.2Zm0,1h6.2v.41h-6.2Zm0,1h6.2v.41h-6.2Zm0,1h6.2v.42h-6.2Zm11.73-18.12,0,.42h-3.44a4,4,0,0,0-.66-.42Zm-2.83,1h2.86l0,.41H251.7Zm.73,1h2.19l0,.41h-1.94Zm.6,1h1.65v.41H252.9Zm.48.95h1.21l0,.41h-1Zm.44,1h.83l0,.42h-.67Zm.42,1h.47v.41h-.31Zm.47,1.36-.12-.41h.16v.41Z"/><path class="cls-1" d="M258.37,83.47V80.86l1.85-.16V66.81l-1.85-2.44V61.73c2.07,0,4.1.12,6.33.12,2,0,4-.09,6.32-.12l2.29,3.05v2.67l-1.84.13V81.66l1.84,2.44v2.45c-2,0-4-.12-6.23-.12-2,0-4,.09-6.39.12Zm11.86-1.88-1.84-.12V63.73l1.84-.13V62.52c-1.33,0-4.55.13-5.53.13s-4.2-.13-5.53-.13V63.6l1.84.13V81.47l-1.84.12v1.08c1.33,0,4.54-.12,5.53-.12s4.2.12,5.53.12Zm-8.55-18.31h6v.42h-6Zm0,1h6v.41h-6Zm0,1h6v.41h-6Zm0,1h6v.41h-6Zm0,.95h6v.41h-6Zm0,1h6v.42h-6Zm0,1h6v.41h-6Zm0,.95h6v.41h-6Zm0,1h6v.42h-6Zm0,1h6v.41h-6Zm0,.95h6v.41h-6Zm0,1h6v.42h-6Zm0,1h6v.41h-6Zm0,1h6v.41h-6Zm0,.95h6v.42h-6Zm0,1h6V78h-6Zm0,1h6V79h-6Zm0,1h6v.41h-6Zm0,1h6v.41h-6Zm0,1h6v.42h-6Z"/><path class="cls-1" d="M297.31,82.93a9.48,9.48,0,0,0,1.4-.73l1.81,1.14,2.26,3.24c-.73,1.91-2.67,6.46-7.47,6.46-2.89,0-4.54-1-5.59-2.32l-2.83-3.63c-3.4-.16-6.55-1.3-8.62-3.88L276.49,81a11.76,11.76,0,0,1-2.76-8.2c0-8.42,5.75-11.54,11.7-11.54,4.32,0,7.85,1.34,10.33,4.9l1.65,2.38a11.9,11.9,0,0,1,2,7.12A11.83,11.83,0,0,1,297.31,82.93Zm-11.88-.8a2.26,2.26,0,0,1-2.2-1.2c.1-1.24.76-2.67,1.75-2.67,3,0-1.34,10.9,7.95,10.9,4.35,0,6-3.85,6.61-5.47l-.83-.51a5.34,5.34,0,0,1-3.21.89c-7.21,0-5.53-7.18-10.17-7.18a2.58,2.58,0,0,0-2.7,2,40.47,40.47,0,0,1-.29-6.23c0-5.75.41-9.44,3.09-9.44s3.08,3.69,3.08,9.44c0,1.84,0,3.31-.13,4.64,1.15,1,2,3.21,3.31,4.48,2.73-1.62,4.64-4.54,4.64-9.28,0-7.85-5.34-10.43-10.9-10.43s-10.91,2.9-10.91,10.75,5.31,10.49,10.91,10.49ZM275.19,71.87h6.52v.41h-6.55A3.58,3.58,0,0,1,275.19,71.87Zm6.52.95v.41h-6.55v-.41Zm-6.52,1h6.52v.42h-6.49S275.19,73.93,275.19,73.77Zm.1-2.86h6.42v.42h-6.49Zm0,3.82h6.42v.41h-6.36A1.68,1.68,0,0,1,275.29,74.73Zm6.45-4.36h-6.39l.09-.41h6.3Zm-6.3,5.31h6.3v.41h-6.2Zm6.33-6.26h-6.2l.13-.41h6.1S281.77,69.29,281.77,69.42Zm-6.07,7.21h6.07l0,.42h-5.94A3.31,3.31,0,0,1,275.7,76.63Zm.38-8.58h5.79s0,.35,0,.42h-5.94Zm0,9.54h5.78l0,.41h-5.6A2.94,2.94,0,0,1,276.05,77.59Zm5.88-10.08h-5.6l.23-.41H282C282,67.26,281.93,67.51,281.93,67.51Zm-5.34,11h5.34L282,79h-5.15Zm5.56-12.39c0,.19-.06.41-.06.41h-5.18l.31-.41ZM277.26,79.5H283a2.83,2.83,0,0,0-.16.41h-5.18Zm5-13.9H277.7l.41-.41h4.3S282.31,65.48,282.28,65.6Zm-4,14.85h4.45a1.68,1.68,0,0,0-.06.41h-3.85A5.77,5.77,0,0,1,278.24,80.45Zm4.36-15.8h-3.79s.38-.28.61-.41h3.37ZM279.67,81.4h3.12a2.17,2.17,0,0,0,.31.42h-2.54C280.28,81.69,280,81.56,279.67,81.4Zm3.82-18.12-.35.42h-2.71a10.06,10.06,0,0,1,1.09-.42Zm.89,19.33a6.32,6.32,0,0,1-2-.29h1.4a3.3,3.3,0,0,0,.64.26Zm-.13-19.77h-1.43a10.59,10.59,0,0,1,2-.29A1.7,1.7,0,0,0,284.25,62.84Zm.92,14.75h.8a2.82,2.82,0,0,1,.95.41H286a1.43,1.43,0,0,0-.83-.35Zm.26-1.5a4.34,4.34,0,0,1,2.22.64c.1-1.21.06-2.51.06-4.1a44.62,44.62,0,0,0-.25-5.5c-1.78.32-2,3.62-2,8.68Zm2.63-13.25h-1.39a1.81,1.81,0,0,0-.55-.29A10.32,10.32,0,0,1,288.06,62.84Zm-1.62,15.7h1.05a2.76,2.76,0,0,1,.32.42H286.6A1.81,1.81,0,0,0,286.44,78.54Zm.32,1h1.4a4.45,4.45,0,0,1,.25.41h-1.55Zm.16,1h1.78l.25.41h-2Zm.09,1h2.26l.29.42h-2.51Zm.1,1H290l.38.41h-3.18C287.14,82.61,287.11,82.36,287.11,82.36Zm.13,1h3.68a7.19,7.19,0,0,0,.61.41H287.3C287.27,83.56,287.24,83.31,287.24,83.31Zm3.3-19.61h-2.76a1.67,1.67,0,0,0-.38-.42h2C289.81,63.41,290.19,63.54,290.54,63.7Zm-3.11,20.56h5.27a11.8,11.8,0,0,0,2.36.42h-7.54Zm.28,1h10.46l-.25.41H287.87Zm4.52-20.57h-3.91l-.19-.41h3.46Zm-4.07,21.52h9.38l-.35.41h-8.78Zm5.15-20.57h-4.67l-.13-.41h4.39Zm.76,1h-5.24l-.1-.41h5.06Zm.54,1H289a2.25,2.25,0,0,0-.06-.41h5.53Zm-5.72,19.61h7.79l-.54.42H289.4A3.45,3.45,0,0,1,288.89,87.12ZM289,68.05h5.85a1.81,1.81,0,0,0,.16.42h-6Zm6.29,1.37h-6.23c0-.13,0-.25,0-.41h6.13Zm-6.23,7.21H295a2.3,2.3,0,0,1-.16.42h-5.79s0,0,0,0S289.08,76.76,289.08,76.63Zm6.42-6.26h-6.39V70h6.33Zm.1,1h-6.46c0-.13,0-.26,0-.42h6.46A2,2,0,0,1,295.6,71.33Zm-6.46,3.4h6.33a1.68,1.68,0,0,1-.06.41h-6.3C289.11,75,289.14,74.89,289.14,74.73Zm0,1h6.2a2.85,2.85,0,0,1-.13.41h-6.07Zm6.55-3.4h-6.52v-.41h6.49C295.63,72,295.66,72.15,295.66,72.28Zm0,1h-6.49v-.41h6.52C295.66,73,295.63,73.11,295.63,73.23Zm-.06,1h-6.43v-.42h6.46C295.6,73.93,295.57,74.06,295.57,74.19Zm-6,3.4h5.11a1.47,1.47,0,0,1-.22.41h-4.58Zm.66,1h3.91l-.25.42h-3.4Zm.13,9.54h4.86a5.82,5.82,0,0,1-1.62.41h-1.4A7.34,7.34,0,0,1,290.32,88.08Zm.41-8.58h2.67l-.38.41H291Zm.61,1h1.11a3.07,3.07,0,0,1-.54.41h-.22A1.73,1.73,0,0,1,291.34,80.45Zm7.09,4.23H296a5.56,5.56,0,0,0,2.07-.42h.51Z"/><path class="cls-1" d="M303.32,82A9.92,9.92,0,0,1,301,75.3V66.81l-1.84-2.41V61.76c2.13,0,4.26.13,6.55.13,2.06,0,4.13-.13,6.67-.13,1.78,0,3.28.13,5,.13,1.5,0,3-.13,4.58-.13l2.29,3.08v2.67c-.29,0-2.83.92-2.83,4.55V77.4c0,7-3.3,9.5-8.84,9.5-3.21,0-5.81-.82-7.59-2.86Zm6.26-18.28,1.88-.13V62.55c-1.33,0-4.74.13-5.72.13s-4.42-.13-5.75-.13v1.08l1.84.13V75.3c0,6.07,3.65,7.72,8.39,7.72,5.09,0,8.14-2.32,8.14-8.8V68.88c0-4.17,2.54-5.25,2.83-5.25V62.55c-1.59,0-2.51.13-3.79.13s-2.35-.13-3.94-.13v1.08c1.18,0,3.63,1.08,3.63,5.25v5.28c0,5.24-2.1,6.1-3.94,6.1-2.29,0-3.57-1.65-3.57-6.33Zm-1.33-.48h.7v.42h-6.49v-.42h.77c1,0,2.1,0,2.51,0S307.36,63.32,308.25,63.28Zm-5.79,1H309v.41h-6.49Zm0,1H309v.41h-6.49Zm0,1H309v.41h-6.49Zm0,.95H309v.41h-6.49Zm0,1H309v.42h-6.49Zm0,1H309v.41h-6.49Zm0,.95H309v.41h-6.49Zm0,1H309v.42h-6.49Zm0,1H309v.41h-6.49Zm0,.95H309v.41h-6.49ZM309,74.19h-6.49v-.42H309Zm0,1h-6.52v-.41H309Zm.06,1H302.5a3.34,3.34,0,0,1,0-.41H309C309,75.84,309,76.09,309,76.09Zm-6.51.54h6.58l.06.42h-6.58Zm6.9,1.37h-6.65l-.09-.41h6.61A2.88,2.88,0,0,0,309.43,78Zm-6.46.54h6.65l.19.42h-6.68A1.75,1.75,0,0,1,303,78.54Zm.45,1h6.71l.34.41H303.7A2.22,2.22,0,0,1,303.42,79.5Zm.73,1h7.06a3.26,3.26,0,0,0,1.3.41h-7.88A3.37,3.37,0,0,1,304.15,80.45Zm1.27,1h9.19a5.15,5.15,0,0,1-.89.42h-7.38A5.1,5.1,0,0,1,305.42,81.4Zm2.83.92v0H312v0a8,8,0,0,1-1.75.16A9.89,9.89,0,0,1,308.25,82.32Zm4.51-3a.67.67,0,0,0,.39.12c1.49,0,3.14-.76,3.14-5.3V68.88a6.88,6.88,0,0,0-.09-1.15,6.29,6.29,0,0,0-1.66-.28c-.38,0-1.78.16-1.78.16Zm2.61,1.52h-1.49a3.36,3.36,0,0,0,1.36-.41h.58Zm-.83-17.58h1.08c.61,0,1.18,0,1.82,0s1.17,0,1.68,0h1.4l-.64.42H315.4A5.25,5.25,0,0,0,314.54,63.28Zm2.07,16.22s-.16.22-.32.41h-.38a4.75,4.75,0,0,0,.41-.41Zm-.54-15.26h3.24c-.13.13-.35.41-.35.41h-2.51Zm.76,1h1.78l-.22.41h-1.34Zm.45,1h.89l-.13.41h-.64Zm.28.95h.32c0,.13-.06.41-.06.41h-.19Zm.1,1h.13l0,.42h-.06Z"/><path class="cls-1" d="M344.27,74.12l-2.87-3.3v3.11h2.36l2.64,3.56-.13,9.06c-3.4,0-6.84-.12-10.87-.12-2.9,0-5.92.12-9.67.12l-2.32-3.08V80.86l1.91-.16V66.88l-1.91-2.51V61.73c2.7,0,5.44.12,8.62.12,3.59,0,7.15-.09,11.12-.12l2.29,3,.41,9.37Zm-20.06,8.55c1.46,0,4.77-.12,8.8-.12,3.31,0,7.5.12,10.17.12l.2-8.16h-1.15l-.09.47c-.16.86-2.45,6.49-7.92,6.49h-.73V72.76l.22,0c1.88.25,3.5,2.76,3.5,4h1.14v-8.4h-1.14c0,1.28-1.84,3-3.5,3.21l-.22,0v-8h1.3c4.33,0,6.49,5.05,6.65,5.69l.12.57h1.15l-.32-7.47c-2.16,0-7.41.13-10.36.13-3.31,0-6.42-.13-7.82-.13V63.6l1.9.13V81.47l-1.9.12Zm2.57-19.39h6v.42h-6Zm0,1h6v.41h-6Zm0,1h6v.41h-6Zm0,1h6v.41h-6Zm0,.95h6v.41h-6Zm0,1h6v.42h-6Zm0,1h6v.41h-6Zm0,.95h6v.41h-6Zm0,1h6v.42h-6Zm0,1h6v.41h-6Zm0,.95h6v.41h-6Zm0,1h6v.42h-6Zm0,1h6v.41h-6Zm0,1h6v.41h-6Zm0,.95h6v.42h-6Zm0,1h6V78h-6Zm0,1h6V79h-6Zm0,1h6v.41h-6Zm0,1h6v.41h-6Zm0,1h6v.42h-6Zm8.36-9.53h2.55v.41l-3.53.06v-.12A4.93,4.93,0,0,0,335.14,71.87Zm.29.95h2.26v.41h-1.78Zm.92-1.91h1.34v.42h-1.85A3.45,3.45,0,0,0,336.35,70.91Zm1,10.49h5.24v.42h-6.42A5.73,5.73,0,0,0,337.34,81.4Zm-.93-7.63h1.28v.42h-1A2.92,2.92,0,0,0,336.41,73.77Zm.19-10.49h5.15v.42h-4.19C337.24,63.54,336.92,63.41,336.6,63.28Zm.61,6.68h.48v.41h-.8A1.88,1.88,0,0,0,337.21,70Zm-.1,4.77h.58v.41h-.35C337.27,75,337.18,74.89,337.11,74.73Zm.58-5.31h-.13l.09-.29h0Zm-.07,6.26h.13V76h0ZM339,80.45h3.62v.41h-4.23A3.25,3.25,0,0,0,339,80.45Zm-.54-16.21h3.37v.41h-2.86Zm1.08,1h2.32l0,.41h-2ZM340,79.5h2.57v.41h-3C339.75,79.78,339.91,79.65,340,79.5Zm.28-13.35h1.56l0,.41h-1.3Zm.58,12.39h1.71V79h-2.06ZM341,67.1h1l0,.41h-.77Zm.57,10.49h1.05V78h-1.33Zm0-9.54H342l0,.42h-.32Zm.57,8.58h.51v.42h-.73A3.29,3.29,0,0,0,342.1,76.63ZM342,69h.12v.25l0,0Zm.6,6.67h.09v.41h-.28Z"/><circle class="cls-1" cx="6.95" cy="45.21" r="3.97"/><path class="cls-1" d="M16.39,52.16H6.46A6.55,6.55,0,0,1,0,45.71a5.65,5.65,0,0,1,4.44-5.46,5.19,5.19,0,0,1,6,3.26l-.91.41a4.2,4.2,0,0,0-4.83-2.7A4.65,4.65,0,0,0,1,45.71a5.55,5.55,0,0,0,5.47,5.46h9.93Z"/><circle class="cls-1" cx="112.75" cy="43.72" r="3.97"/><path class="cls-1" d="M111.35,48.8a5.59,5.59,0,0,1-5.55-5.58,6.54,6.54,0,0,1,6.46-6.45h9.93v1h-9.93a5.54,5.54,0,0,0-5.47,5.46,4.65,4.65,0,0,0,3.66,4.49A4.2,4.2,0,0,0,115.28,45l.91.41A5.23,5.23,0,0,1,111.35,48.8Z"/><rect class="cls-1" x="16.39" y="51.17" width="168.88" height="0.99"/><path class="cls-1" d="M100.83,45.71H16.39v-1h84c.16-2.37,1.51-12.42,12.39-12.42v1c-11.27,0-11.42,11.43-11.42,11.92v.5Z"/><circle class="cls-1" cx="133.12" cy="28.82" r="3.97"/><circle class="cls-1" cx="149.01" cy="20.37" r="3.97"/><path class="cls-1" d="M147,30.69c-.2-.2-4.77-5.12-5.91-8.15a7,7,0,0,1,.2-5.75,7.85,7.85,0,0,1,5.1-3.85,8.33,8.33,0,0,1,6.76.76,7.17,7.17,0,0,1,3.29,4.59,8.69,8.69,0,0,1-1,6.28,4.1,4.1,0,0,1-2.86,1.76c-2.67.38-5.72-.66-6.51-3.85l1-.24c.65,2.59,3.18,3.42,5.41,3.11A3.16,3.16,0,0,0,154.61,24a7.8,7.8,0,0,0,.87-5.52,6.31,6.31,0,0,0-2.84-3.93,7.31,7.31,0,0,0-6-.65,6.9,6.9,0,0,0-4.48,3.34,6,6,0,0,0-.15,5C143.1,25,147.68,30,147.73,30Z"/><rect class="cls-1" x="112.75" y="32.29" width="5.96" height="0.99"/><circle class="cls-1" cx="363.59" cy="45.21" r="3.97"/><path class="cls-1" d="M364.09,52.16h-9.94v-1h9.94a5.54,5.54,0,0,0,5.46-5.46,4.65,4.65,0,0,0-3.65-4.49,4.2,4.2,0,0,0-4.84,2.7l-.9-.41a5.18,5.18,0,0,1,5.95-3.26,5.65,5.65,0,0,1,4.43,5.46A6.54,6.54,0,0,1,364.09,52.16Z"/><circle class="cls-1" cx="257.79" cy="43.72" r="3.97"/><path class="cls-1" d="M259.2,48.8a5.23,5.23,0,0,1-4.84-3.39l.9-.41a4.2,4.2,0,0,0,4.84,2.71,4.65,4.65,0,0,0,3.65-4.49,5.53,5.53,0,0,0-5.46-5.46h-9.94v-1h9.94a6.55,6.55,0,0,1,6.46,6.45,5.66,5.66,0,0,1-4.44,5.46A5.8,5.8,0,0,1,259.2,48.8Z"/><rect class="cls-1" x="185.27" y="51.17" width="168.88" height="0.99"/><path class="cls-1" d="M354.15,45.71H269.22v-.5c0-.49-.15-11.92-11.43-11.92v-1c10.88,0,12.23,10.05,12.4,12.42h84Z"/><polygon class="cls-1" points="248.35 37.76 185.27 37.76 122.19 37.76 122.19 36.77 185.27 36.77 248.35 36.77 248.35 37.76"/><polygon class="cls-1" points="248.35 46.95 185.27 46.95 122.19 46.95 122.19 45.46 185.27 45.46 248.35 45.46 248.35 46.95"/><path class="cls-1" d="M195.57,34.26a23.44,23.44,0,0,1-10.3-7.08A23.35,23.35,0,0,1,175,34.26l-.28-.95a22.14,22.14,0,0,0,10.16-7.25l.41-.62.42.62c1.87,2.81,6.71,6.26,10.15,7.25Z"/><circle class="cls-1" cx="237.43" cy="28.82" r="3.97"/><circle class="cls-1" cx="221.53" cy="20.37" r="3.97"/><path class="cls-1" d="M238.42,36a5.07,5.07,0,0,1-4.66-2.51,5.67,5.67,0,0,1,.05-5.57l1.27.76a4.25,4.25,0,0,0,0,4.08,3.59,3.59,0,0,0,3.37,1.75c3.94,0,5.71-3.63,5.71-6.21a6.06,6.06,0,0,0-1.82-4.52,6.55,6.55,0,0,0-4.85-1.69c-4.35.22-7.22,2.89-10.26,5.72-3.67,3.41-7.46,6.94-14.14,6.7s-14.17-3.15-20.89-8a43.91,43.91,0,0,1-6.9-6.13,43.47,43.47,0,0,1-6.9,6.13c-6.72,4.84-14.33,7.76-20.89,8s-10.47-3.29-14.14-6.7c-3-2.83-5.91-5.5-10.26-5.72a6.53,6.53,0,0,0-4.84,1.69,6,6,0,0,0-1.83,4.52c0,2.58,1.77,6.21,5.71,6.21a3.56,3.56,0,0,0,3.37-1.75,4.23,4.23,0,0,0,0-4.08l1.28-.76a5.72,5.72,0,0,1,0,5.57A5.09,5.09,0,0,1,132.12,36c-4.44,0-7.2-4-7.2-7.7a7.5,7.5,0,0,1,2.29-5.6,8,8,0,0,1,5.94-2.1c4.9.25,8.11,3.23,11.21,6.12,3.44,3.2,7,6.52,13.07,6.3,9.79-.35,20.69-6.78,26.87-13.76a20.43,20.43,0,0,1-4.22-7.67c-.53-2.11-.62-6.38,4.69-11.16l.5-.45.5.45c5.32,4.78,5.22,9.05,4.7,11.16a20.46,20.46,0,0,1-4.23,7.67c6.18,7,17.08,13.41,26.87,13.76,6.07.22,9.63-3.1,13.07-6.3,3.11-2.89,6.31-5.87,11.21-6.12a8,8,0,0,1,5.94,2.1,7.5,7.5,0,0,1,2.29,5.6C245.62,32,242.87,36,238.42,36ZM185.27,2c-4.23,4.06-4.18,7.51-3.75,9.23a18.81,18.81,0,0,0,3.75,6.89A18.81,18.81,0,0,0,189,11.25C189.45,9.53,189.51,6.08,185.27,2Z"/><path class="cls-1" d="M223.54,30.69l-.73-.68c.05-.05,4.64-5,5.71-7.82a6,6,0,0,0-.16-5,6.85,6.85,0,0,0-4.48-3.34,7.31,7.31,0,0,0-6,.65,6.31,6.31,0,0,0-2.84,3.93,7.8,7.8,0,0,0,.88,5.52,3.14,3.14,0,0,0,2.19,1.35c2.22.31,4.76-.52,5.4-3.11l1,.24c-.8,3.19-3.85,4.23-6.52,3.85a4.1,4.1,0,0,1-2.86-1.76,8.74,8.74,0,0,1-1-6.28,7.24,7.24,0,0,1,3.29-4.59,8.36,8.36,0,0,1,6.77-.76,7.86,7.86,0,0,1,5.09,3.85,7.08,7.08,0,0,1,.21,5.75C228.31,25.57,223.73,30.49,223.54,30.69Z"/><rect class="cls-1" x="251.83" y="32.29" width="5.96" height="0.99"/><circle class="cls-1" cx="6.95" cy="104.31" r="3.97"/><path class="cls-1" d="M16.39,97.35H6.46A6.55,6.55,0,0,0,0,103.81a5.65,5.65,0,0,0,4.44,5.46,5.19,5.19,0,0,0,6-3.27l-.91-.41a4.18,4.18,0,0,1-4.83,2.7A4.63,4.63,0,0,1,1,103.81a5.54,5.54,0,0,1,5.47-5.46h9.93Z"/><circle class="cls-1" cx="112.75" cy="105.8" r="3.97"/><path class="cls-1" d="M111.35,100.72a5.59,5.59,0,0,0-5.55,5.58,6.55,6.55,0,0,0,6.46,6.45h9.93v-1h-9.93a5.55,5.55,0,0,1-5.47-5.46,4.65,4.65,0,0,1,3.66-4.49,4.2,4.2,0,0,1,4.83,2.7l.91-.41A5.24,5.24,0,0,0,111.35,100.72Z"/><rect class="cls-1" x="16.39" y="97.35" width="168.88" height="0.99"/><path class="cls-1" d="M100.83,103.81H16.39v1h84c.16,2.37,1.51,12.41,12.39,12.41v-1c-11.27,0-11.42-11.44-11.42-11.92v-.5Z"/><circle class="cls-1" cx="133.12" cy="120.7" r="3.97"/><circle class="cls-1" cx="149.01" cy="129.14" r="3.97"/><path class="cls-1" d="M147,118.83c-.2.2-4.77,5.12-5.91,8.15a7,7,0,0,0,.2,5.75,7.85,7.85,0,0,0,5.1,3.85,8.33,8.33,0,0,0,6.76-.76,7.2,7.2,0,0,0,3.29-4.59,8.69,8.69,0,0,0-1-6.28,4.1,4.1,0,0,0-2.86-1.76c-2.67-.38-5.72.66-6.51,3.85l1,.24c.65-2.59,3.18-3.42,5.41-3.11a3.16,3.16,0,0,1,2.19,1.35,7.78,7.78,0,0,1,.87,5.51,6.3,6.3,0,0,1-2.84,3.94,7.34,7.34,0,0,1-6,.65,6.91,6.91,0,0,1-4.48-3.35,6,6,0,0,1-.15-4.94c1.07-2.85,5.65-7.78,5.7-7.83Z"/><rect class="cls-1" x="112.75" y="116.23" width="5.96" height="0.99"/><circle class="cls-1" cx="363.59" cy="104.31" r="3.97"/><path class="cls-1" d="M364.09,97.35h-9.94v1h9.94a5.53,5.53,0,0,1,5.46,5.46,4.63,4.63,0,0,1-3.65,4.48,4.18,4.18,0,0,1-4.84-2.7l-.9.41a5.18,5.18,0,0,0,5.95,3.27,5.65,5.65,0,0,0,4.43-5.46A6.55,6.55,0,0,0,364.09,97.35Z"/><circle class="cls-1" cx="257.79" cy="105.8" r="3.97"/><path class="cls-1" d="M259.2,100.72a5.24,5.24,0,0,0-4.84,3.38l.9.41a4.2,4.2,0,0,1,4.84-2.7,4.65,4.65,0,0,1,3.65,4.49,5.54,5.54,0,0,1-5.46,5.46h-9.94v1h9.94a6.55,6.55,0,0,0,6.46-6.45,5.66,5.66,0,0,0-4.44-5.46A5.8,5.8,0,0,0,259.2,100.72Z"/><rect class="cls-1" x="185.27" y="97.35" width="168.88" height="0.99"/><path class="cls-1" d="M354.15,103.81H269.22v.5c0,.48-.15,11.92-11.43,11.92v1c10.88,0,12.23-10,12.4-12.41h84Z"/><polygon class="cls-1" points="248.35 111.76 185.27 111.76 122.19 111.76 122.19 112.75 185.27 112.75 248.35 112.75 248.35 111.76"/><polygon class="cls-1" points="248.35 102.57 185.27 102.57 122.19 102.57 122.19 104.06 185.27 104.06 248.35 104.06 248.35 102.57"/><path class="cls-1" d="M195.57,115.26a23.42,23.42,0,0,0-10.3,7.07A23.33,23.33,0,0,0,175,115.26l-.28.95a22.07,22.07,0,0,1,10.16,7.25l.41.62.42-.62a22,22,0,0,1,10.15-7.25Z"/><circle class="cls-1" cx="237.43" cy="120.7" r="3.97"/><circle class="cls-1" cx="221.53" cy="129.14" r="3.97"/><path class="cls-1" d="M245.62,121.2a7.51,7.51,0,0,1-2.29,5.6,8,8,0,0,1-5.94,2.09c-4.9-.24-8.1-3.22-11.21-6.11-3.44-3.2-7-6.52-13.07-6.3-9.79.35-20.69,6.78-26.87,13.75a20.61,20.61,0,0,1,4.23,7.67c.52,2.12.62,6.38-4.7,11.17l-.5.45-.5-.45c-5.31-4.79-5.22-9-4.69-11.17a20.58,20.58,0,0,1,4.22-7.67c-6.18-7-17.08-13.4-26.87-13.75-6.06-.22-9.63,3.1-13.07,6.3-3.1,2.89-6.31,5.87-11.21,6.11a8,8,0,0,1-5.94-2.09,7.51,7.51,0,0,1-2.29-5.6c0-3.71,2.76-7.7,7.2-7.7a5.09,5.09,0,0,1,4.67,2.51,5.72,5.72,0,0,1,0,5.57l-1.28-.77a4.21,4.21,0,0,0,0-4.07,3.56,3.56,0,0,0-3.37-1.75c-3.94,0-5.71,3.63-5.71,6.21a6,6,0,0,0,1.83,4.52,6.57,6.57,0,0,0,4.84,1.69c4.35-.22,7.23-2.89,10.26-5.72,3.67-3.41,7.46-6.94,14.14-6.7s14.17,3.15,20.89,8a43,43,0,0,1,6.9,6.13,43.42,43.42,0,0,1,6.9-6.13c6.72-4.84,14.33-7.76,20.89-8s10.47,3.29,14.14,6.7c3,2.83,5.91,5.5,10.26,5.72a6.59,6.59,0,0,0,4.85-1.69,6.08,6.08,0,0,0,1.82-4.52c0-2.58-1.77-6.21-5.71-6.21a3.59,3.59,0,0,0-3.37,1.75,4.23,4.23,0,0,0,0,4.07l-1.27.77a5.67,5.67,0,0,1-.05-5.57,5.07,5.07,0,0,1,4.66-2.51C242.87,113.5,245.62,117.49,245.62,121.2ZM189,138.27a18.81,18.81,0,0,0-3.75-6.89,18.81,18.81,0,0,0-3.75,6.89c-.43,1.72-.48,5.17,3.75,9.23C189.51,143.44,189.45,140,189,138.27Z"/><path class="cls-1" d="M223.54,118.83l-.73.67c.05,0,4.64,5,5.71,7.83a6,6,0,0,1-.16,4.94,6.86,6.86,0,0,1-4.48,3.35,7.34,7.34,0,0,1-6-.65,6.3,6.3,0,0,1-2.84-3.94,7.79,7.79,0,0,1,.88-5.51,3.14,3.14,0,0,1,2.19-1.35c2.22-.32,4.76.52,5.4,3.11l1-.24c-.8-3.19-3.85-4.23-6.52-3.85a4.1,4.1,0,0,0-2.86,1.76,8.74,8.74,0,0,0-1,6.28,7.27,7.27,0,0,0,3.29,4.59,8.36,8.36,0,0,0,6.77.76,7.86,7.86,0,0,0,5.09-3.85,7.08,7.08,0,0,0,.21-5.75C228.31,124,223.73,119,223.54,118.83Z"/><rect class="cls-1" x="251.83" y="116.23" width="5.96" height="0.99"/></g></g></svg>